<svg xmlns="http://www.w3.org/2000/svg" width="45" height="57" data-name="Layer 1"><defs><linearGradient id="a" x1="6.605" x2="36.975" y1="7.344" y2="42.178" gradientUnits="userSpaceOnUse"><stop offset="0" stop-color="#ffff2e" style="stop-color:#fff21c;stop-opacity:1"/><stop offset="1" stop-color="#ff913d" style="stop-color:#fea40c;stop-opacity:1"/></linearGradient></defs><path d="M43.95 22.348c0 13.507-9.597 27.602-21.44 27.602-11.842 0-21.46-14.063-21.46-27.602C1.05 8.81 10.668 1.05 22.51 1.05c11.843 0 21.44 7.803 21.44 21.298Z" style="display:inline;fill:url(#a);stroke:#000;stroke-width:2.1;stroke-dasharray:none;stroke-opacity:1"/><path d="M30.138 35.802c-5.091-1.959-11.058-1.836-16.278.332-.72.315-2.06-1.868-1.183-2.244 6.023-2.502 12.91-2.644 18.785-.385.856.341-.62 2.578-1.32 2.298" style="display:inline;fill:#000;fill-opacity:1;stroke-width:1.57059"/><path d="M31.501 25.25a6.708 6.709 0 0 1-4.773-1.976A6.7 6.701 0 0 1 24.75 18.5a6.756 6.758 0 0 1 6.75-6.75 6.76 6.76 0 0 1 6.75 6.752 6.705 6.706 0 0 1-1.976 4.773A6.704 6.705 0 0 1 31.5 25.25" style="display:inline;fill:#fff;fill-opacity:1;fill-rule:nonzero;stroke:#000;stroke-width:1.50001;stroke-dasharray:none;stroke-opacity:1"/><path d="M34 21.5a2.5 2.5 0 1 0-5 0 2.5 2.5 0 0 0 5 0" style="display:inline;fill:#000;fill-opacity:1;fill-rule:nonzero;stroke:none;stroke-width:0;stroke-dasharray:none"/><path d="M13.501 25.25a6.708 6.709 0 0 1-4.773-1.976A6.7 6.701 0 0 1 6.75 18.5a6.756 6.758 0 0 1 6.75-6.75 6.76 6.76 0 0 1 6.75 6.752 6.705 6.706 0 0 1-1.976 4.773A6.704 6.705 0 0 1 13.5 25.25" style="display:inline;fill:#fff;fill-opacity:1;fill-rule:nonzero;stroke:#000;stroke-width:1.50002;stroke-dasharray:none;stroke-opacity:1"/><path d="M16 21.5a2.5 2.5 0 1 0-5 0 2.5 2.5 0 0 0 5 0" style="display:inline;fill:#000;fill-opacity:1;fill-rule:nonzero;stroke:none;stroke-width:0;stroke-dasharray:none"/></svg>