<svg xmlns="http://www.w3.org/2000/svg" width="45" height="57" data-name="Layer 1"><defs><linearGradient id="a" x1="6.605" x2="36.975" y1="7.344" y2="42.178" gradientUnits="userSpaceOnUse"><stop offset="0" stop-color="#ffff2e" style="stop-color:#fff21c;stop-opacity:1"/><stop offset="1" stop-color="#ff913d" style="stop-color:#fea40c;stop-opacity:1"/></linearGradient></defs><path d="M43.95 22.348c0 13.507-9.597 27.602-21.44 27.602-11.842 0-21.46-14.063-21.46-27.602C1.05 8.81 10.668 1.05 22.51 1.05c11.843 0 21.44 7.803 21.44 21.298Z" style="display:inline;fill:url(#a);stroke:#000;stroke-width:2.1;stroke-dasharray:none;stroke-opacity:1"/><path d="M27.284 38.362a10.39 10.81 0 0 1-4.906-1.934c-2.38-1.47-3.792-1.933-4.861-1.548-1.068.39-1.765 1.47-2.593 3.386l-1.282-.56c.93-2.36 2.054-3.686 3.439-4.16 1.746-.598 3.67.243 6.003 1.683 1.71 1.055 3.633 2.06 5.018 1.539a3.717 3.868 0 0 0 1.952-2.621l1.32.473c-.633 1.935-1.543 3.036-2.788 3.51a3.866 4.022 0 0 1-1.302.233z" style="display:inline;stroke:#000;stroke-width:.999999;stroke-dasharray:none;stroke-opacity:1"/><path d="M13.464 26.172a6.671 6.67 0 0 1-4.747-1.965A6.664 6.663 0 0 1 6.75 19.46a6.72 6.718 0 0 1 6.713-6.711 6.723 6.72 0 0 1 6.713 6.713 6.668 6.667 0 0 1-1.966 4.745 6.667 6.666 0 0 1-4.747 1.964" style="display:inline;fill:#fff;fill-opacity:1;fill-rule:nonzero;stroke:#000;stroke-width:1.5;stroke-dasharray:none;stroke-opacity:1"/><path d="M19 20.5a2.5 2.5 0 1 0-5 0 2.5 2.5 0 0 0 5 0" style="display:inline;fill:#000;fill-opacity:1;fill-rule:nonzero;stroke:none;stroke-width:0;stroke-dasharray:none"/><path d="M31.464 26.172a6.671 6.67 0 0 1-4.747-1.965 6.664 6.663 0 0 1-1.967-4.746 6.72 6.718 0 0 1 6.713-6.711 6.723 6.72 0 0 1 6.713 6.713 6.668 6.667 0 0 1-1.966 4.745 6.667 6.666 0 0 1-4.747 1.964" style="display:inline;fill:#fff;fill-opacity:1;fill-rule:nonzero;stroke:#000;stroke-width:1.5;stroke-dasharray:none;stroke-opacity:1"/><path d="M36.72 21.104a2.5 2.5 0 1 0-5 0 2.5 2.5 0 0 0 5 0" style="display:inline;fill:#000;fill-opacity:1;fill-rule:nonzero;stroke:none;stroke-width:0;stroke-dasharray:none"/></svg>