<svg xmlns="http://www.w3.org/2000/svg" width="45" height="57" data-name="Layer 1"><defs><linearGradient id="a" x1="6.605" x2="36.975" y1="7.344" y2="42.178" gradientUnits="userSpaceOnUse"><stop offset="0" stop-color="#ffff2e" style="stop-color:#fff21c;stop-opacity:1"/><stop offset="1" stop-color="#ff913d" style="stop-color:#fea40c;stop-opacity:1"/></linearGradient></defs><path d="M43.95 22.348c0 13.507-9.597 27.602-21.44 27.602-11.842 0-21.46-14.063-21.46-27.602C1.05 8.81 10.668 1.05 22.51 1.05c11.843 0 21.44 7.803 21.44 21.298Z" style="display:inline;fill:url(#a);stroke:#000;stroke-width:2.1;stroke-dasharray:none;stroke-opacity:1"/><path d="M12.001 27.25a8.198 8.2 0 0 1-5.834-2.416A8.19 8.19 0 0 1 3.75 19 8.258 8.26 0 0 1 12 10.75a8.262 8.262 0 0 1 8.25 8.253 8.195 8.196 0 0 1-2.416 5.833A8.193 8.195 0 0 1 12 27.25" style="display:inline;fill:#fff;fill-opacity:1;fill-rule:nonzero;stroke:#000;stroke-width:1.5;stroke-dasharray:none;stroke-opacity:1"/><path d="M14.5 19a2.5 2.5 0 1 0-5 0 2.5 2.5 0 0 0 5 0" style="display:inline;fill:#000;fill-opacity:1;fill-rule:nonzero;stroke:none;stroke-width:0;stroke-dasharray:none"/><path d="M33.001 27.25a8.198 8.2 0 0 1-5.834-2.416A8.19 8.19 0 0 1 24.75 19 8.258 8.26 0 0 1 33 10.75a8.262 8.262 0 0 1 8.25 8.253 8.195 8.196 0 0 1-2.416 5.833A8.193 8.195 0 0 1 33 27.25" style="display:inline;fill:#fff;fill-opacity:1;fill-rule:nonzero;stroke:#000;stroke-width:1.5;stroke-dasharray:none;stroke-opacity:1"/><path d="M35.5 19a2.5 2.5 0 1 0-5 0 2.5 2.5 0 0 0 5 0" style="display:inline;fill:#000;fill-opacity:1;fill-rule:nonzero;stroke:none;stroke-width:0;stroke-dasharray:none"/><path d="M27.487 38h-9.974c-.684 0-.684-3 0-3h9.974c.684 0 .684 3 0 3" style="display:inline;fill:#000;fill-opacity:1;stroke:none;stroke-width:0;stroke-dasharray:none;stroke-opacity:1"/></svg>