<svg xmlns="http://www.w3.org/2000/svg" width="45" height="57" data-name="Layer 1"><defs><linearGradient id="a" x1="6.605" x2="36.975" y1="7.344" y2="42.178" gradientUnits="userSpaceOnUse"><stop offset="0" stop-color="#ffff2e" style="stop-color:#fff21c;stop-opacity:1"/><stop offset="1" stop-color="#ff913d" style="stop-color:#fea40c;stop-opacity:1"/></linearGradient></defs><path d="M43.95 22.348c0 13.507-9.597 27.602-21.44 27.602-11.842 0-21.46-14.063-21.46-27.602C1.05 8.81 10.668 1.05 22.51 1.05c11.843 0 21.44 7.803 21.44 21.298Z" style="display:inline;fill:url(#a);stroke:#000;stroke-width:2.1;stroke-dasharray:none;stroke-opacity:1"/><path d="M38.222 26.633c0 7.861-5.352 17.032-16.11 17.032C11.345 43.665 6 34.494 6 26.633h32.222" style="display:inline;fill:#000;stroke:none;stroke-width:0;stroke-dasharray:none;stroke-opacity:1"><animate attributeName="d"  dur="0.5s" repeatCount="indefinite" values="m 38.222223,26.632699 c 0,7.861334 -5.351818,17.032259 -16.111111,17.032259 C 11.34596,43.664958 6,34.494033 6,26.632699 h 32.22222; m 38.222223,22.633001 c 0,9.707437 -5.351818,21.032 -16.111111,21.032 C 11.34596,43.665001 6,32.340438 6,22.633001 h 32.222223; m 38.222223,26.632699 c 0,7.861334 -5.351818,17.032259 -16.111111,17.032259 C 11.34596,43.664958 6,34.494033 6,26.632699 h 32.22222"/></path><path d="M33.389 36.213a13.044 10.773 0 0 1-11.278 5.323 13.05 10.778 0 0 1-11.278-5.317l22.556-.006" style="display:inline;fill:red;fill-opacity:1;stroke:#262626;stroke-width:0;stroke-dasharray:none;stroke-opacity:1"><animate attributeName="d"  dur="0.5s" repeatCount="indefinite" values="m 33.38889,36.213344 a 13.043557,10.772856 0 0 1 -11.277777,5.322558 13.050002,10.778179 0 0 1 -11.27778,-5.317235 l 22.555557,-0.0054; M 33.38889,32.213176 A 13.043557,18.869396 0 0 1 22.111113,41.536002 13.050002,18.87872 0 0 1 10.833333,32.2225 L 33.38889,32.213; m 33.38889,36.213344 a 13.043557,10.772856 0 0 1 -11.277777,5.322558 13.050002,10.778179 0 0 1 -11.27778,-5.317235 l 22.555557,-0.0054"/></path><path d="M35.33 18.27c-2.55-2.654-6.008-3.615-9.437-2.623-.474.15-.821-2.03-.244-2.206 3.955-1.144 7.949-.037 10.892 3.024.425.456-.86 2.179-1.21 1.804" style="display:inline;fill:#000;fill-opacity:1;stroke-width:1.06955"><animate attributeName="d"  dur="0.5s" repeatCount="indefinite" values="m 35.330094,18.269271 c -2.549852,-2.652775 -6.008372,-3.614032 -9.436816,-2.621904 -0.474741,0.149033 -0.821667,-2.030032 -0.243815,-2.206742 3.954741,-1.143289 7.948148,-0.0362 10.891111,3.024292 0.425334,0.455612 -0.859258,2.179063 -1.209406,1.804354; m 35.330094,15.269271 c -2.549852,-2.652775 -6.008372,-3.614032 -9.436816,-2.621904 -0.474741,0.149033 -0.821667,-2.030032 -0.243815,-2.206742 3.954741,-1.1432895 7.948148,-0.0362 10.891111,3.024292 0.425334,0.455612 -0.859258,2.179063 -1.209406,1.804354; m 35.330094,18.269271 c -2.549852,-2.652775 -6.008372,-3.614032 -9.436816,-2.621904 -0.474741,0.149033 -0.821667,-2.030032 -0.243815,-2.206742 3.954741,-1.143289 7.948148,-0.0362 10.891111,3.024292 0.425334,0.455612 -0.859258,2.179063 -1.209406,1.804354"/></path><path d="M18.047 15.477c-3.42-.858-6.88.166-9.437 2.792-.35.375-1.63-1.25-1.203-1.702 2.95-3.03 6.942-4.212 10.89-3.223.579.154.226 2.26-.248 2.133" style="display:inline;fill:#000;fill-opacity:1;stroke-width:1.0443"><animate attributeName="d"  dur="0.5s" repeatCount="indefinite" values="m 18.047454,15.477198 c -3.420926,-0.858 -6.880518,0.166064 -9.4378886,2.792226 -0.3490739,0.37471 -1.6293705,-1.249743 -1.2029631,-1.702161 2.9504817,-3.030678 6.9428157,-4.21229 10.8911107,-3.223356 0.577852,0.154356 0.225557,2.259969 -0.249185,2.133291; m 18.047454,12.477198 c -3.420926,-0.858 -6.880518,0.166064 -9.4378886,2.792226 -0.3490739,0.37471 -1.6293705,-1.249743 -1.2029631,-1.702161 2.9504817,-3.030678 6.9428157,-4.2122905 10.8911107,-3.223356 0.577852,0.154356 0.225557,2.259969 -0.249185,2.133291; m 18.047454,15.477198 c -3.420926,-0.858 -6.880518,0.166064 -9.4378886,2.792226 -0.3490739,0.37471 -1.6293705,-1.249743 -1.2029631,-1.702161 2.9504817,-3.030678 6.9428157,-4.21229 10.8911107,-3.223356 0.577852,0.154356 0.225557,2.259969 -0.249185,2.133291"/></path></svg>