<svg xmlns="http://www.w3.org/2000/svg" width="45" height="57" data-name="Layer 1"><defs><linearGradient id="a" x1="6.605" x2="36.975" y1="7.344" y2="42.178" gradientUnits="userSpaceOnUse"><stop offset="0" stop-color="#ffff2e" style="stop-color:#fff21c;stop-opacity:1"/><stop offset="1" stop-color="#ff913d" style="stop-color:#fea40c;stop-opacity:1"/></linearGradient></defs><path d="M43.95 22.348c0 13.507-9.597 27.602-21.44 27.602-11.842 0-21.46-14.063-21.46-27.602C1.05 8.81 10.668 1.05 22.51 1.05c11.843 0 21.44 7.803 21.44 21.298Z" style="display:inline;fill:url(#a);stroke:#000;stroke-width:2.1;stroke-dasharray:none;stroke-opacity:1"/><ellipse cx="13.5" cy="19.5" rx="6.75" ry="6.75" style="fill:#fff;stroke:#000;stroke-width:1.5"><animate id="b" fill="remove" attributeName="ry" attributeType="XML" begin="1s;b.end+0.8s" dur="0.2s" repeatCount="1" to="2"/></ellipse><ellipse cx="30.5" cy="19.5" rx="6.75" ry="6.75" style="fill:#fff;stroke:#000;stroke-width:1.5"><animate fill="remove" attributeName="ry" attributeType="XML" begin="1s;b.end+0.8s" dur="0.2s" repeatCount="1" to="2"/></ellipse><path d="M33.5 22.5a2.5 2.5 0 1 0-5 0 2.5 2.5 0 0 0 5 0" style="display:inline;fill:#000;fill-opacity:1;fill-rule:nonzero;stroke:none;stroke-width:0;stroke-dasharray:none"><animateTransform attributeName="transform" dur="1s" repeatCount="indefinite" type="rotate" values="0 30.5 19.5;-120 30.5 19.5"/></path><path d="M16 22.5a2.5 2.5 0 1 0-5 0 2.5 2.5 0 0 0 5 0" style="display:inline;fill:#000;fill-opacity:1;fill-rule:nonzero;stroke:none;stroke-width:0;stroke-dasharray:none"><animateTransform attributeName="transform" dur="1s" repeatCount="indefinite" type="rotate" values="0 13.5 19.5;-120 13.5 19.5"/></path><path d="M28.347 36.5H15.653c-.87 0-.87-3 0-3h12.694c.87 0 .87 3 0 3" style="display:inline;fill:#000;fill-opacity:1;stroke:none;stroke-width:0;stroke-dasharray:none;stroke-opacity:1"/></svg>