<svg xmlns="http://www.w3.org/2000/svg" xmlns:xlink="http://www.w3.org/1999/xlink" width="45" height="57" data-name="Layer 1"><defs><linearGradient id="c" x1="6.605" x2="36.975" y1="7.344" y2="42.178" gradientUnits="userSpaceOnUse"><stop offset="0" stop-color="#ffff2e" style="stop-color:#fff21c;stop-opacity:1"/><stop offset="1" stop-color="#ff913d" style="stop-color:#fea40c;stop-opacity:1"/></linearGradient><linearGradient xlink:href="#a" id="d" x1="22" x2="22" y1="13.293" y2="27" gradientUnits="userSpaceOnUse"/><linearGradient id="a"><stop offset="0" style="stop-color:#000;stop-opacity:1"/><stop offset=".75" style="stop-color:#000e23;stop-opacity:1"/><stop offset=".75" style="stop-color:#65b1ef;stop-opacity:1"/><stop offset="1" style="stop-color:#65b1ef;stop-opacity:1"/></linearGradient><linearGradient xlink:href="#b" id="e" x1="23.371" x2="23.371" y1="14.371" y2="26.311" gradientUnits="userSpaceOnUse"/><linearGradient id="b"><stop offset="0" style="stop-color:#fff;stop-opacity:1"/><stop offset=".75" style="stop-color:#fff;stop-opacity:1"/><stop offset=".75" style="stop-color:#65b1ef;stop-opacity:1"/><stop offset="1" style="stop-color:#65b1ef;stop-opacity:1"/></linearGradient><linearGradient xlink:href="#b" id="g" x1="23.371" x2="23.371" y1="14.371" y2="26.311" gradientUnits="userSpaceOnUse"/><linearGradient xlink:href="#a" id="f" x1="22" x2="22" y1="13.293" y2="27" gradientUnits="userSpaceOnUse"/></defs><path d="M43.95 22.348c0 13.507-9.597 27.602-21.44 27.602-11.842 0-21.46-14.063-21.46-27.602C1.05 8.81 10.668 1.05 22.51 1.05c11.843 0 21.44 7.803 21.44 21.298Z" style="display:inline;fill:url(#c);stroke:#000;stroke-width:2.1;stroke-dasharray:none;stroke-opacity:1"/><path d="M30.666 37.58c-5.027-2.072-10.981-2.046-16.243.069-.726.308-2.008-1.93-1.123-2.297 6.072-2.44 12.944-2.471 18.746-.081.845.36-.685 2.606-1.377 2.31" style="display:inline;fill:#000;fill-opacity:1;stroke-width:1.57059"/><path d="M13.501 29a7.454 7.454 0 0 1-5.305-2.196A7.445 7.446 0 0 1 6 21.5a7.507 7.509 0 0 1 7.5-7.5c4.136 0 7.5 3.366 7.5 7.502a7.45 7.45 0 0 1-2.196 5.304A7.449 7.45 0 0 1 13.5 29" style="display:inline;fill:url(#d);fill-opacity:1;fill-rule:nonzero;stroke:none;stroke-width:0;stroke-dasharray:none;stroke-opacity:1"/><path d="M13.5 27.735a5.963 5.964 0 0 1-4.244-1.756A5.956 5.956 0 0 1 7.5 21.735a6.005 6.007 0 0 1 6-6c3.308 0 6 2.694 6 6.001a5.96 5.96 0 0 1-1.756 4.244 5.959 5.96 0 0 1-4.244 1.755" style="display:inline;fill:url(#e);fill-opacity:1;fill-rule:nonzero;stroke:none;stroke-width:0;stroke-dasharray:none;stroke-opacity:1"/><path d="M16 21.502a2.5 2.5 0 1 0-5 0 2.5 2.5 0 0 0 5 0" style="display:inline;fill:#000;fill-opacity:1;fill-rule:nonzero;stroke:none;stroke-width:0;stroke-dasharray:none"/><path d="M31.501 29a7.454 7.454 0 0 1-5.305-2.196A7.445 7.446 0 0 1 24 21.5a7.507 7.509 0 0 1 7.5-7.5c4.136 0 7.5 3.366 7.5 7.502a7.45 7.45 0 0 1-2.196 5.304A7.449 7.45 0 0 1 31.5 29" style="display:inline;fill:url(#f);fill-opacity:1;fill-rule:nonzero;stroke:none;stroke-width:0;stroke-dasharray:none;stroke-opacity:1"/><path d="M31.5 27.735a5.963 5.964 0 0 1-4.244-1.756 5.956 5.956 0 0 1-1.756-4.244 6.005 6.007 0 0 1 6-6c3.308 0 6 2.694 6 6.001a5.96 5.96 0 0 1-1.756 4.244 5.959 5.96 0 0 1-4.244 1.755" style="display:inline;fill:url(#g);fill-opacity:1;fill-rule:nonzero;stroke:none;stroke-width:0;stroke-dasharray:none;stroke-opacity:1"/><path d="M34 21.502a2.5 2.5 0 1 0-5 0 2.5 2.5 0 0 0 5 0" style="display:inline;fill:#000;fill-opacity:1;fill-rule:nonzero;stroke:none;stroke-width:0;stroke-dasharray:none"/></svg>