<svg xmlns="http://www.w3.org/2000/svg" width="45" height="57" data-name="Layer 1"><defs><linearGradient id="a" x1="6.605" x2="36.975" y1="7.344" y2="42.178" gradientUnits="userSpaceOnUse"><stop offset="0" stop-color="#00ee83" style="stop-color:#00ee83;stop-opacity:1"/><stop offset="1" stop-color="#007842" style="stop-color:#007842;stop-opacity:1"/></linearGradient></defs><path d="M43.95 22.348c0 13.507-9.597 27.602-21.44 27.602-11.842 0-21.46-14.063-21.46-27.602C1.05 8.81 10.668 1.05 22.51 1.05c11.843 0 21.44 7.803 21.44 21.298Z" style="display:inline;fill:url(#a);stroke:#000;stroke-width:2.1;stroke-dasharray:none;stroke-opacity:1"/><path d="M37.93 22c0 9.231-4.983 20-15 20-10.023 0-15-10.769-15-20h30" style="fill:#000;stroke:none;stroke-width:0;stroke-dasharray:none;stroke-opacity:1"/><path d="M35.93 24.5c0 6.922-4.319 15-13 15-8.685 0-13-8.078-13-15h26" style="fill:#fff;stroke:none;stroke-width:0;stroke-dasharray:none;stroke-opacity:1"/><path d="M19.426 15.025c-3.977-1.713-7.708-.764-10.038 2.916-.369.4-1.75-1.36-1.299-1.844 2.655-3.948 7.032-4.98 11.583-3.366.618.171.262 2.435-.245 2.294M25.574 15.025c3.977-1.713 7.708-.764 10.038 2.916.369.4 1.749-1.36 1.299-1.844-2.656-3.948-7.033-4.98-11.584-3.366-.617.171-.261 2.435.246 2.294" style="display:inline;fill:#000;fill-opacity:1;stroke-width:1.0443"/><path d="M23-29h17v2H23zM23-18h17v2H23z" style="fill:#000;stroke-width:2.1;paint-order:stroke fill markers" transform="rotate(90)"/></svg>