<svg xmlns="http://www.w3.org/2000/svg" width="45" height="57" data-name="Layer 1"><defs><linearGradient id="a" x1="6.605" x2="36.975" y1="7.344" y2="42.178" gradientUnits="userSpaceOnUse"><stop offset="0" stop-color="#ffff2e" style="stop-color:#fff21c;stop-opacity:1"/><stop offset="1" stop-color="#ff913d" style="stop-color:#fea40c;stop-opacity:1"/></linearGradient></defs><path d="M43.95 22.348c0 13.507-9.597 27.602-21.44 27.602-11.842 0-21.46-14.063-21.46-27.602C1.05 8.81 10.668 1.05 22.51 1.05c11.843 0 21.44 7.803 21.44 21.298Z" style="display:inline;fill:url(#a);stroke:#000;stroke-width:2.1;stroke-dasharray:none;stroke-opacity:1"/><path d="M30.501 24.25a6.708 6.709 0 0 1-4.773-1.976A6.7 6.701 0 0 1 23.75 17.5a6.756 6.758 0 0 1 6.75-6.75 6.76 6.76 0 0 1 6.75 6.752 6.705 6.706 0 0 1-1.976 4.773A6.704 6.705 0 0 1 30.5 24.25" style="display:inline;fill:#fff;fill-opacity:1;fill-rule:nonzero;stroke:#000;stroke-width:1.5;stroke-dasharray:none;stroke-opacity:1"/><path d="M33.185 18.839a2.5 2.5 0 1 0-5 0 2.5 2.5 0 0 0 5 0" style="display:inline;fill:#000;fill-opacity:1;fill-rule:nonzero;stroke:none;stroke-width:0;stroke-dasharray:none"/><path d="M13.464 24.056a6.671 6.613 0 0 1-4.747-1.948 6.664 6.605 0 0 1-1.967-4.705 6.72 6.66 0 0 1 6.713-6.653 6.723 6.663 0 0 1 6.713 6.655 6.668 6.61 0 0 1-1.966 4.704 6.667 6.609 0 0 1-4.747 1.947" style="display:inline;fill:#fff;fill-opacity:1;fill-rule:nonzero;stroke:#000;stroke-width:1.50001;stroke-dasharray:none;stroke-opacity:1"/><path d="M16 18.839a2.5 2.5 0 1 0-5 0 2.5 2.5 0 0 0 5 0" style="display:inline;fill:#000;fill-opacity:1;fill-rule:nonzero;stroke:none;stroke-width:0;stroke-dasharray:none"/><ellipse cx="22.056" cy="34.968" rx="6.444" ry="7.984" style="fill:#000;stroke-width:0;paint-order:stroke fill markers"/><path d="M17.222 32.306a5.59 8.618 0 0 1 4.834-4.258 5.593 8.623 0 0 1 4.833 4.254l-9.667.004" style="display:inline;fill:#fff;fill-opacity:1;stroke:#262626;stroke-width:0;stroke-dasharray:none;stroke-opacity:1"/></svg>