<svg xmlns="http://www.w3.org/2000/svg" width="45" height="57" data-name="Layer 1"><defs><linearGradient id="a" x1="6.605" x2="36.975" y1="7.344" y2="42.178" gradientUnits="userSpaceOnUse"><stop offset="0" stop-color="#fff21c" style="stop-color:#fff21c;stop-opacity:1"/><stop offset="1" stop-color="#fea40c" style="stop-color:#fea40c;stop-opacity:1"/></linearGradient></defs><path d="M43.95 22.348c0 13.507-9.597 27.602-21.44 27.602-11.842 0-21.46-14.063-21.46-27.602C1.05 8.81 10.668 1.05 22.51 1.05c11.843 0 21.44 7.803 21.44 21.298Z" style="display:inline;fill:url(#a);stroke:#000;stroke-width:2.1;stroke-dasharray:none;stroke-opacity:1"/><path d="M18.147 36.348c5.39-.72 10.533-3.719 14.032-8.18.475-.63 2.704.667 2.12 1.427-4.037 5.149-9.973 8.612-16.192 9.443-.912.111-.71-2.599.037-2.689" style="display:inline;fill:#000;fill-opacity:1;stroke-width:1.57059"/><path d="M17 20.001a2.5 2.5 0 1 0-5 0 2.5 2.5 0 0 0 5 0" style="display:inline;fill:#000;fill-opacity:1;fill-rule:nonzero;stroke:none;stroke-width:0;stroke-dasharray:none"/><path d="M36.363 22.116c-3.775-2.09-7.838-2.067-11.083.063-.444.308-1.688-1.947-1.145-2.315 3.744-2.457 8.432-2.488 12.791-.076.634.363-.038 2.626-.561 2.328M19.741 10.298c-4.314.078-7.821 2.129-9.566 5.596-.231.489-2.436-.842-2.15-1.432 2.014-4 6.06-6.371 11.04-6.462.73-.002 1.28 2.294.678 2.297" style="display:inline;fill:#000;fill-opacity:1;stroke-width:1.06955"/></svg>