<svg xmlns="http://www.w3.org/2000/svg" width="45" height="57" data-name="Layer 1"><defs><linearGradient id="a" x1="6.605" x2="36.975" y1="7.344" y2="42.178" gradientUnits="userSpaceOnUse"><stop offset="0" stop-color="#ffff2e" style="stop-color:#fff21c;stop-opacity:1"/><stop offset="1" stop-color="#ff913d" style="stop-color:#fea40c;stop-opacity:1"/></linearGradient></defs><path d="M43.95 22.348c0 13.507-9.597 27.602-21.44 27.602-11.842 0-21.46-14.063-21.46-27.602C1.05 8.81 10.668 1.05 22.51 1.05c11.843 0 21.44 7.803 21.44 21.298Z" style="display:inline;fill:url(#a);stroke:#000;stroke-width:2.1;stroke-dasharray:none;stroke-opacity:1"/><path d="M31.183 16.635a9.773 8.626 0 0 1-.321 2.307 9.213 8.131 0 0 1-.838 1.822 11.174 9.862 0 0 1-1.149 1.47c-.42.443-.831.863-1.224 1.251l-.051.05c-.367.342-.707.67-1.009.98a7.748 6.838 0 0 0-.861 1.079 6.102 5.385 0 0 0-.59 1.287 7.27 6.416 0 0 0-.214 1.632v.095a2.22 1.959 0 0 1-4.434 0v-.095a11.693 10.32 0 0 1 .36-2.634 10.6 9.356 0 0 1 1.02-2.225 12.311 10.866 0 0 1 1.358-1.692c.34-.35.722-.723 1.131-1.101.358-.356.733-.742 1.12-1.147a6.696 5.91 0 0 0 .688-.882 4.818 4.252 0 0 0 .422-.942 5.313 4.69 0 0 0 .158-1.255 4.074 3.596 0 0 0-.317-1.449 4.188 3.697 0 0 0-.896-1.203 4.13 3.645 0 0 0-1.336-.795 3.788 3.343 0 0 0-1.558-.274 3.928 3.467 0 0 0-1.607.278 4.225 3.73 0 0 0-2.284 2.019 3.95 3.486 0 0 0-.315 1.42v.054a2.22 1.959 0 1 1-4.434 0v-.053a8.364 7.382 0 0 1 .677-2.967 8.655 7.639 0 0 1 4.6-4.068A8.33 7.352 0 0 1 22.642 9a8.17 7.21 0 0 1 3.325.597 8.564 7.559 0 0 1 4.55 4.066 8.474 7.48 0 0 1 .668 2.972zm-5.9 18.655a2.88 2.542 0 0 1 0 1.965 2.883 2.544 0 0 1-1.53 1.35l-.01.006a2.754 2.43 0 0 1-1.088.195 2.883 2.544 0 0 1-2.68-1.551 2.829 2.497 0 0 1 .612-2.76 3.008 2.655 0 0 1 .935-.538 2.9 2.56 0 0 1 1.133-.2 2.766 2.442 0 0 1 1.088.196l.01.006a3.025 2.67 0 0 1 .916.535 2.758 2.434 0 0 1 .615.794z" style="display:inline;stroke-width:42.1054"/></svg>