<svg xmlns="http://www.w3.org/2000/svg" width="45" height="57" data-name="Layer 1"><defs><linearGradient id="a" x1="6.605" x2="36.975" y1="7.344" y2="42.178" gradientUnits="userSpaceOnUse"><stop offset="0" stop-color="#ffff2e" style="stop-color:#fff21c;stop-opacity:1"/><stop offset="1" stop-color="#ff913d" style="stop-color:#fea40c;stop-opacity:1"/></linearGradient></defs><path d="M43.95 22.348c0 13.507-9.597 27.602-21.44 27.602-11.842 0-21.46-14.063-21.46-27.602C1.05 8.81 10.668 1.05 22.51 1.05c11.843 0 21.44 7.803 21.44 21.298Z" style="display:inline;fill:url(#a);stroke:#000;stroke-width:2.1;stroke-dasharray:none;stroke-opacity:1"/><path d="M10 40c0-4.616 4.152-10 12.5-10C30.852 30 35 35.384 35 40H10" style="fill:#000;stroke:none;stroke-width:0;stroke-dasharray:none;stroke-opacity:1"/><path d="M12.84 37.778c0-2.564 3.21-5.556 9.66-5.556 6.453 0 9.66 2.992 9.66 5.556H12.84" style="fill:#fff;stroke:none;stroke-width:0;stroke-dasharray:none;stroke-opacity:1"/><path d="M16.315 20.1c-.895-3.162-3.339-5.47-6.665-6.298-.468-.106.258-1.902.825-1.77 3.838.955 6.658 3.62 7.692 7.267.144.539-1.734 1.244-1.852.801" style="display:inline;fill:#000;fill-opacity:1;stroke-width:1.0443"/><path d="M34.797 13.83c-3.345.81-5.737 3.148-6.526 6.378-.1.452-2.034-.292-1.908-.84.91-3.726 3.67-6.426 7.53-7.362.569-.128 1.373 1.717.905 1.824" style="display:inline;fill:#000;fill-opacity:1;stroke-width:1.06955"/><path d="M17.998 23.033a2.5 2.5 0 1 0-5 0 2.5 2.5 0 0 0 5 0M31.998 23.033a2.5 2.5 0 1 0-5 0 2.5 2.5 0 0 0 5 0" style="display:inline;fill:#000;fill-opacity:1;fill-rule:nonzero;stroke:none;stroke-width:0;stroke-dasharray:none"/></svg>