<svg xmlns="http://www.w3.org/2000/svg" width="45" height="57" data-name="Layer 1"><defs><linearGradient id="a" x1="6.605" x2="36.975" y1="7.344" y2="42.178" gradientUnits="userSpaceOnUse"><stop offset="0" stop-color="#ffff2e" style="stop-color:#fff21c;stop-opacity:1"/><stop offset="1" stop-color="#ff913d" style="stop-color:#fea40c;stop-opacity:1"/></linearGradient></defs><path d="M43.95 22.348c0 13.507-9.597 27.602-21.44 27.602-11.842 0-21.46-14.063-21.46-27.602C1.05 8.81 10.668 1.05 22.51 1.05c11.843 0 21.44 7.803 21.44 21.298Z" style="display:inline;fill:url(#a);stroke:#000;stroke-width:2.1;stroke-dasharray:none;stroke-opacity:1"/><path d="M8.773 17.008c-3.851.096-6.829.32-8.59.65L0 17.697l.018.387.056 1.31c.045 1.251.151 2.186.285 2.603.045.147.193.358.267.385.034.009.172.043.306.07.151.029.306.087.405.15.421.274.819 1.012 1.247 2.334.11.341.247.724.303.855.242.554.686 1.034 1.16 1.255.906.428 2.683.741 5.095.902.935.06 3.434.05 4.36-.02 2.393-.18 3.884-.531 4.7-1.1.46-.323.872-1.054 1.326-2.36.16-.467.35-.967.422-1.111.375-.79 1.037-1.38 2.031-1.826.197-.088.26-.102.538-.102.313 0 .32.004.675.18.553.278.844.475 1.19.806.488.47.686.832 1.093 2.02.559 1.633.994 2.288 1.772 2.644.696.321 1.603.544 2.865.712 3.587.467 8.944.12 10.759-.698.774-.352 1.14-.862 1.582-2.222.376-1.155.728-1.848 1.1-2.179.166-.147.36-.23.648-.277.379-.06.527-.441.643-1.67.07-.76.182-3.056.147-3.056-.01 0-.165-.03-.344-.062-1.265-.248-3.699-.448-6.958-.578-1.462-.057-6.635-.057-7.717 0-1.744.094-2.543.18-3.281.36-.447.107-.76.218-1.972.682-.974.374-1.808.51-2.637.437-.78-.073-1.129-.166-2.24-.605-1.575-.62-2.13-.724-4.725-.87-.58-.033-5.44-.068-6.346-.044zm4.187.915c1.821.057 2.824.18 3.74.467.743.231 1.225.49 1.632.881.706.679.967 1.544.816 2.692-.19 1.419-.576 2.708-1.038 3.453-.678 1.098-1.656 1.573-3.635 1.773-1.203.12-5.172.154-6.23.053-1.902-.184-2.992-.58-3.815-1.393-.71-.704-1.113-1.635-1.325-3.051-.079-.535-.088-1.834-.015-2.204.247-1.285.985-2.053 2.307-2.404.446-.117 1.178-.224 1.828-.264.643-.04 4.508-.04 5.735-.003zm25.4.046c1.613.18 2.506.582 3.058 1.38.425.614.59 1.369.551 2.51-.052 1.464-.4 2.706-.984 3.526a4.245 4.15 0 0 1-1.044.968c-.76.482-1.712.748-3.165.889-.576.057-3.466.077-4.657.033-2.145-.077-3.02-.223-3.886-.64-1.206-.584-1.867-1.783-2.3-4.175-.203-1.122-.147-1.803.204-2.484.59-1.138 1.935-1.749 4.34-1.973.906-.084 2.053-.107 4.805-.097 2.141.007 2.652.017 3.077.064z" style="display:inline;stroke-width:.133333"/><path d="M8.201 27.548c-2.047-.29-2.751-.528-3.618-1.226-1.116-.897-1.75-2.826-1.667-5.062.026-.68.06-.907.191-1.28.423-1.193 1.231-1.789 2.866-2.112.648-.128 6.33-.19 7.938-.086 2.66.17 4.036.659 4.825 1.71.66.88.74 1.901.304 3.828-.338 1.49-.72 2.326-1.356 2.962-.654.655-1.3.93-2.727 1.157-.495.078-1.22.102-3.596.116-1.635.01-3.058.007-3.16-.007zm23.076-.001c-.902-.066-1.705-.17-2.115-.272-1.785-.447-2.643-1.488-3.197-3.884-.427-1.848-.363-2.78.257-3.685.694-1.013 2.21-1.575 4.713-1.747 1.435-.098 6.857-.077 7.706.03 1.68.211 2.64.736 3.13 1.707.31.616.364.928.36 2.09-.005 2.017-.472 3.432-1.43 4.334-.55.518-.982.769-1.759 1.02-1.159.376-1.477.405-4.585.416-1.54.006-2.925.002-3.08-.01z" style="display:inline;fill:#000;stroke:#000;stroke-width:.5;paint-order:stroke fill markers"/><path d="M14.108 33.103c5.007 3.522 10.906 5.103 16.84-.073.74-.323 2.164 2.024 1.262 2.409-5.819 5.315-13.107 4.12-19.434.085-.891-.377.598-2.732 1.329-2.422" style="display:inline;fill:#000;fill-opacity:1;stroke-width:1.57059"/><path d="M18 22.5a1.5 1.5 0 1 0-3 0 1.5 1.5 0 0 0 3 0M36 22.5a1.5 1.5 0 1 0-3 0 1.5 1.5 0 0 0 3 0" style="display:inline;fill:#fff;fill-opacity:1;fill-rule:nonzero;stroke:none;stroke-width:0;stroke-dasharray:none"/></svg>