<svg xmlns="http://www.w3.org/2000/svg" width="45" height="54" data-name="Layer 1"><defs><linearGradient id="a" x1="6.605" x2="36.975" y1="7.344" y2="42.178" gradientUnits="userSpaceOnUse"><stop offset="0" stop-color="#ffff2e" style="stop-color:#fff21c;stop-opacity:1"/><stop offset="1" stop-color="#ff913d" style="stop-color:#fea40c;stop-opacity:1"/></linearGradient></defs><path d="M43.95 22.348c0 13.507-9.597 27.602-21.44 27.602-11.842 0-21.46-14.063-21.46-27.602C1.05 8.81 10.668 1.05 22.51 1.05c11.843 0 21.44 7.803 21.44 21.298Z" style="display:inline;fill:url(#a);stroke:#000;stroke-width:2.1;stroke-dasharray:none;stroke-opacity:1"/><path d="M23.299 38a2.106 2.106 0 0 1-1.467-.617l-1.223-1.252c-.392-.4-.62-.952-.62-1.519s.228-1.118.62-1.501l3.141-2.907h-9.843c-1.173 0-1.907-1.002-1.907-2.136v-6.136c0-1.134.751-2.337 1.907-2.136h9.663l-2.961-2.907a2.118 2.118 0 0 1-.62-1.501c0-.567.228-1.118.62-1.502l1.223-1.252c.391-.4.913-.634 1.467-.634a2.09 2.09 0 0 1 1.484.634l10.614 10.864c.391.384.603.935.603 1.502s-.212 1.118-.603 1.519L24.783 37.383c-.392.383-.93.617-1.484.617Z" style="stroke-width:1"/></svg>