<svg xmlns="http://www.w3.org/2000/svg" width="51" height="57" data-name="Layer 1"><defs><linearGradient id="a" x1="6.605" x2="36.975" y1="7.344" y2="42.178" gradientUnits="userSpaceOnUse"><stop offset="0" stop-color="#ffff2e" style="stop-color:#fff21c;stop-opacity:1"/><stop offset="1" stop-color="#ff913d" style="stop-color:#fea40c;stop-opacity:1"/></linearGradient></defs><path d="M46.95 22.348c0 13.507-9.597 27.602-21.44 27.602-11.842 0-21.46-14.063-21.46-27.602C4.05 8.81 13.668 1.05 25.51 1.05c11.843 0 21.44 7.803 21.44 21.298Z" style="display:inline;fill:url(#a);stroke:#000;stroke-width:2.1;stroke-dasharray:none;stroke-opacity:1"/><path d="M30.033 42h-9.066c-.623 0-.623-4 0-4h9.066c.623 0 .623 4 0 4" style="display:inline;fill:#000;fill-opacity:1;stroke:none;stroke-width:0;stroke-dasharray:none;stroke-opacity:1"/><path d="M21.252 16H4.248C2.408 16 1 17.4 1 19.232v7.863c0 1.831 1.407 3.232 3.248 3.232h17.004c1.84 0 3.248-1.4 3.248-3.232v-7.863A3.249 3.249 0 0 0 21.252 16ZM46.752 16H29.748c-1.84 0-3.248 1.4-3.248 3.232v7.863c0 1.831 1.407 3.232 3.248 3.232h17.004c1.84 0 3.248-1.4 3.248-3.232v-7.863A3.249 3.249 0 0 0 46.752 16Z" style="display:inline;fill:#bcef1f;fill-opacity:1;stroke:#000;stroke-width:2;stroke-dasharray:none;stroke-opacity:1"/><path d="M20 23.5a2.5 2.5 0 1 0-5 0 2.5 2.5 0 0 0 5 0M36 23.5a2.5 2.5 0 1 0-5 0 2.5 2.5 0 0 0 5 0" style="display:inline;fill:#000;fill-opacity:1;fill-rule:nonzero;stroke:none;stroke-width:0;stroke-dasharray:none"/></svg>