<svg xmlns="http://www.w3.org/2000/svg" xmlns:xlink="http://www.w3.org/1999/xlink" width="45" height="57" data-name="Layer 1"><defs><linearGradient id="c" x1="6.605" x2="36.975" y1="7.344" y2="42.178" gradientUnits="userSpaceOnUse"><stop offset="0" stop-color="#ffff2e" style="stop-color:#fff21c;stop-opacity:1"/><stop offset="1" stop-color="#ff913d" style="stop-color:#fea40c;stop-opacity:1"/></linearGradient><linearGradient xlink:href="#a" id="d" x1="37.548" x2="43.639" y1="8.141" y2="3.312" gradientUnits="userSpaceOnUse"/><linearGradient id="a"><stop offset="0" style="stop-color:#fecd00;stop-opacity:1"/><stop offset="1" style="stop-color:red;stop-opacity:1"/></linearGradient><linearGradient xlink:href="#b" id="e" x1="7.424" x2="1.346" y1="8.065" y2="3.027" gradientUnits="userSpaceOnUse"/><linearGradient id="b"><stop offset="0" style="stop-color:#fff21c;stop-opacity:1"/><stop offset="1" style="stop-color:red;stop-opacity:1"/></linearGradient></defs><path d="M10.714 7.056a20.495 16.704 0 0 0-6.772 7.635C.56 10.361-.338 5.355.106 0c3.222 3.3 6.69 5.86 10.608 7.056ZM34.286 7.193A20.399 17.055 0 0 1 41.076 15c3.368-4.421 4.261-9.533 3.819-15-3.207 3.37-6.659 5.983-10.61 7.193Z" class="cls-1" style="fill:#000;stroke-width:1"/><path d="M43.95 22.348c0 13.507-9.597 27.602-21.44 27.602-11.842 0-21.46-14.063-21.46-27.602C1.05 8.81 10.668 1.05 22.51 1.05c11.843 0 21.44 7.803 21.44 21.298Z" style="display:inline;fill:url(#c);stroke:#000;stroke-width:2.1;stroke-dasharray:none;stroke-opacity:1"/><path d="M30.515 38.28c-5.027-2.568-10.98-2.536-16.242.085-.726.382-2.008-2.392-1.123-2.847 6.072-3.024 12.944-3.062 18.745-.1.845.445-.684 3.23-1.376 2.863" style="display:inline;fill:#000;fill-opacity:1;stroke-width:1.57059"/><path d="M25.162 21.068c4.147-1.192 7.004-4.081 7.792-7.882.097-.532 2.571.183 2.447.827-.91 4.385-4.204 7.722-8.99 9.099-.706.192-1.83-1.884-1.25-2.043M11.557 13.162c1.192 4.147 4.08 7.004 7.882 7.792.531.097-.183 2.571-.828 2.447-4.385-.91-7.722-4.204-9.099-8.99-.191-.706 1.885-1.83 2.044-1.25" style="display:inline;fill:#000;fill-opacity:1;stroke-width:1.06955"/><path d="M13.394 29.196a4.525 4.526 0 0 1-3.22-1.333 4.52 4.52 0 0 1-1.335-3.22 4.558 4.559 0 0 1 4.554-4.554 4.56 4.56 0 0 1 4.553 4.555 4.523 4.524 0 0 1-1.333 3.22 4.522 4.523 0 0 1-3.22 1.332" style="display:inline;fill:red;fill-opacity:1;fill-rule:nonzero;stroke:#000;stroke-width:1.5;stroke-dasharray:none;stroke-opacity:1"/><path d="M37.35 8.019c1.333 1.342 2.5 2.72 2.912 4.593 1.888-2.369 2.656-5.282 2.818-8.48-1.741 1.769-3.785 3.415-5.73 3.887z" class="cls-1" style="display:inline;fill:url(#d);stroke-width:1"/><path d="M8.23 7.91a10.72 11.537 89.374 0 0-3.352 5.188c-2.15-2.617-2.946-5.777-3.01-9.221 2 1.965 4.095 3.445 6.362 4.033Z" class="cls-1" style="display:inline;fill:url(#e);stroke-width:1"/><path d="M31.608 29.196a4.525 4.526 0 0 1-3.22-1.333 4.52 4.52 0 0 1-1.334-3.22 4.558 4.559 0 0 1 4.553-4.554 4.56 4.56 0 0 1 4.554 4.555 4.523 4.524 0 0 1-1.334 3.22 4.522 4.523 0 0 1-3.22 1.332" style="display:inline;fill:red;fill-opacity:1;fill-rule:nonzero;stroke:#000;stroke-width:1.5;stroke-dasharray:none;stroke-opacity:1"/><path d="M35 33c0 4.616-4.152 10-12.5 10C14.148 43 10 37.616 10 33h25" style="fill:#000;stroke:none;stroke-width:0;stroke-dasharray:none;stroke-opacity:1"/><path d="M32.16 35.222c0 2.564-3.21 5.556-9.66 5.556-6.453 0-9.66-2.992-9.66-5.556h19.32" style="fill:#fff;stroke:none;stroke-width:0;stroke-dasharray:none;stroke-opacity:1"/></svg>