<svg xmlns="http://www.w3.org/2000/svg" width="45" height="57" data-name="Layer 1"><defs><linearGradient id="b" x1="8.84" x2="34.6" y1="4.55" y2="41.34" gradientTransform="matrix(.93118 0 0 .93927 .049 .049)" gradientUnits="userSpaceOnUse"><stop offset="0" stop-color="#ffff2e" style="stop-color:#fff21c;stop-opacity:1"/><stop offset="1" stop-color="#ff913d" style="stop-color:#fea40c;stop-opacity:1"/></linearGradient><linearGradient id="a" x1="8.84" x2="34.6" y1="4.55" y2="41.34" gradientUnits="userSpaceOnUse"><stop offset="0" style="stop-color:#fda61e;stop-opacity:1"/><stop offset="1" style="stop-color:#e34c0f;stop-opacity:1"/></linearGradient></defs><path d="M44.25 22.31c0 13.672-9.731 27.94-21.74 27.94C10.504 50.25.75 36.014.75 22.31.75 8.605 10.503.75 22.51.75c12.009 0 21.74 7.899 21.74 21.56z" style="display:inline;fill:url(#a);stroke:#000;stroke-width:1.50001;stroke-dasharray:none;stroke-opacity:1"/><g style="display:inline;stroke:#000;stroke-width:1.40282;stroke-dasharray:none;stroke-opacity:1" transform="matrix(1.0739 0 0 1.06466 -.052 -.052)"><path d="M41.25 21.003c0 12.844-9.06 26.247-20.24 26.247C9.83 47.25.75 33.877.75 21.003S9.83.75 21.01.75c11.18 0 20.24 7.42 20.24 20.253z" style="display:inline;fill:url(#b);stroke:#000;stroke-width:1.40282;stroke-dasharray:none;stroke-opacity:1"/><animate attributeName="opacity" attributeType="XML" begin="0s" dur="2s" repeatCount="indefinite" values="1; 0; 1"/></g><path d="M27.94 36.5H17.06c-.747 0-.747-3 0-3h10.88c.747 0 .747 3 0 3" style="display:inline;fill:#000;fill-opacity:1;stroke:none;stroke-width:0;stroke-dasharray:none;stroke-opacity:1"/><path d="M17.967 13.786c-3.528.049-6.602 1.926-8.386 5.118-.24.452-1.901-.79-1.607-1.336 2.058-3.683 5.607-5.85 9.678-5.907.599 0 .808 2.125.316 2.125" style="display:inline;fill:#000;fill-opacity:1;stroke-width:1.0443"/><path d="M34.875 18.904c-1.77-3.216-4.86-5.032-8.43-4.953-.497.022-.263-2.172.34-2.193 4.12-.09 7.688 2.003 9.732 5.714.29.55-1.4 1.885-1.64 1.433" style="display:inline;fill:#000;fill-opacity:1;stroke-width:1.06955"/><path d="M17.5 21.002a2.5 2.5 0 1 0-5 0 2.5 2.5 0 0 0 5 0M32.5 21.002a2.5 2.5 0 1 0-5 0 2.5 2.5 0 0 0 5 0" style="display:inline;fill:#000;fill-opacity:1;fill-rule:nonzero;stroke:none;stroke-width:0;stroke-dasharray:none"/></svg>