<svg xmlns="http://www.w3.org/2000/svg" width="51" height="57" data-name="Layer 1"><defs><linearGradient id="a" x1="6.605" x2="36.975" y1="7.344" y2="42.178" gradientUnits="userSpaceOnUse"><stop offset="0" stop-color="#ffff2e" style="stop-color:#fff21c;stop-opacity:1"/><stop offset="1" stop-color="#ff913d" style="stop-color:#fea40c;stop-opacity:1"/></linearGradient></defs><path d="M46.95 22.348c0 13.507-9.597 27.602-21.44 27.602-11.842 0-21.46-14.063-21.46-27.602C4.05 8.81 13.668 1.05 25.51 1.05c11.843 0 21.44 7.803 21.44 21.298Z" style="display:inline;fill:url(#a);stroke:#000;stroke-width:2.1;stroke-dasharray:none;stroke-opacity:1"/><path d="M30.033 38.5h-9.066c-.623 0-.623-3.5 0-3.5h9.066c.623 0 .623 3.5 0 3.5" style="display:inline;fill:#000;fill-opacity:1;stroke:none;stroke-width:0;stroke-dasharray:none;stroke-opacity:1"/><path d="M21.913 49.207c-.12.69.583 3.12.583 3.12-.81-1.599-2.175-4.52-1.977-6.58.22-3.644 9.736-3.517 9.913-.48.347 1.882-.715 5.309-1.42 6.864.04-.682.487-3.124.487-3.124-.21 2.716-3.314 7.181-3.314 7.181.033-.797.484-3.4.484-3.4C26.42 53.946 25.623 57 25.623 57c-1.143-1.902-3.633-5.088-3.71-7.793" style="display:inline;fill:#000;fill-opacity:1;fill-rule:nonzero;stroke:none;stroke-width:0;stroke-dasharray:none"/><path d="M14.711 30H8.225c-3.503 0-6.574-2.38-7.006-5.403L.139 18.95c-.24-1.605-.286-3.674.838-4.77C2.1 13.085 4.31 13 6.063 13h12.972c1.795 0 4.056.104 5.092 1.256.239.284.667 1.143.841 1.483.929-.17.25-.232 1.158-.062.173-.34.672-1.137.933-1.42C28.075 13.102 30.192 13 32.009 13h12.972c1.752 0 3.82-.039 4.945 1.056 1.102 1.096 1.196 3.289.98 4.819l-1.103 5.798C49.392 27.62 46.301 30 42.82 30h-6.485c-3.373 0-6.66-2.249-7.48-5.1l-2.443-5.305c-.822-.529-1.4-.342-2.222.186l-2.063 5.251C21.348 27.771 18.083 30 14.71 30" style="display:inline;stroke-width:33.3333"/><path d="M5.82 28.231c-1.052-.268-2.167-1.47-2.653-2.478-.228-.475-.68-1.787-1.26-4.566-.582-2.778-.29-1.058-.642-3.255-.364-2.271.987-3.426 2.037-3.498.214-.015 3.43 0 9.247.001 8.985.003 8.577-.08 8.964.087.757.009 1.74 1 1.65 1.644.056.333.499.628-1.003 4.925-.941 2.698-2.25 4.95-2.358 5.152-.51.961-2.396 1.997-3.612 2.242-.342.07-2.085.102-5.263.098-3.86-.005-4.087-.092-4.517-.202zM45.18 28.231c1.052-.268 2.167-1.47 2.653-2.478.228-.475.68-1.787 1.26-4.566.582-2.778.29-1.058.642-3.255.364-2.271-.987-3.426-2.037-3.498-.214-.015-3.43 0-9.247.001-8.985.003-8.577-.08-8.964.087-.757.009-1.74 1-1.65 1.644-.056.333-.499.628 1.003 4.925.941 2.698 2.25 4.95 2.358 5.152.51.961 2.396 1.997 3.612 2.242.342.07 2.085.102 5.263.098 3.86-.005 4.087-.092 4.517-.202z" style="display:inline;fill:#8fdd84;fill-opacity:1;stroke-width:0;paint-order:stroke fill markers"/><path d="M18.313 22.156a2.656 2.656 0 1 0-5.313 0 2.656 2.656 0 0 0 5.313 0M38 22a2.5 2.5 0 1 0-5 0 2.5 2.5 0 0 0 5 0" style="display:inline;fill:#000;fill-opacity:1;fill-rule:nonzero;stroke:none;stroke-width:0;stroke-dasharray:none"/></svg>