<svg xmlns="http://www.w3.org/2000/svg" width="45" height="57" data-name="Layer 1"><defs><linearGradient id="a" x1="6.605" x2="36.975" y1="7.344" y2="42.178" gradientUnits="userSpaceOnUse"><stop offset="0" stop-color="#ffff2e" style="stop-color:#fff21c;stop-opacity:1"/><stop offset="1" stop-color="#ff913d" style="stop-color:#fea40c;stop-opacity:1"/></linearGradient></defs><path d="M43.95 22.348c0 13.507-9.597 27.602-21.44 27.602-11.842 0-21.46-14.063-21.46-27.602C1.05 8.81 10.668 1.05 22.51 1.05c11.843 0 21.44 7.803 21.44 21.298Z" style="display:inline;fill:url(#a);stroke:#000;stroke-width:2.1;stroke-dasharray:none;stroke-opacity:1"/><g style="display:inline;stroke-width:35.0003"><path d="M32 0C16.539 0 4 12.539 4 28c0 9.445 4.695 17.781 11.863 22.844C16.438 51.25 17.375 52 20 52h24c2.188 0 3.559-.742 4.133-1.148C55.305 45.781 60 37.445 60 28 60 12.539 47.461 0 32 0Zm11.891 44H36V28c0-2.211-1.789-4-4-4-2.211 0-4 1.789-4 4v16h-7.891C15.215 40.359 12 34.578 12 28c0-11.047 8.953-20 20-20s20 8.953 20 20c0 6.578-3.215 12.359-8.109 16z" style="fill:#000;stroke-width:35.0003" transform="translate(11.071 12) scale(.35714)"/><path d="M40.441 53.378h-16.8a4.198 4.198 0 0 0-4.2 4.2c0 2.321 1.878 4.2 4.2 4.2h16.8c2.322 0 4.2-1.879 4.2-4.2 0-2.322-1.878-4.2-4.2-4.2z" style="display:inline;fill:#000;stroke-width:35.0003" transform="translate(11.071 12) scale(.35714)"/><path d="M40.441 61.778h-16.8a4.198 4.198 0 0 0-4.2 4.2c0 2.321 1.878 4.2 4.2 4.2h16.8c2.322 0 4.2-1.879 4.2-4.2 0-2.322-1.878-4.2-4.2-4.2z" style="fill:#000;stroke-width:35.0003" transform="translate(11.071 12) scale(.35714)"/><path d="M40.441 70.178h-16.8a4.198 4.198 0 0 0-4.2 4.2c0 2.321 1.878 4.2 4.2 4.2h16.8c2.322 0 4.2-1.879 4.2-4.2 0-2.322-1.878-4.2-4.2-4.2z" style="fill:#000;stroke-width:35.0003" transform="translate(11.071 12) scale(.35714)"/></g><path d="M26.747 27.714h-2.818V22a1.428 1.428 0 1 0-2.858 0v5.714h-2.818c-1.748-1.3-2.896-3.365-2.896-5.714a7.142 7.142 0 0 1 7.143-7.143A7.142 7.142 0 0 1 29.643 22c0 2.35-1.148 4.414-2.896 5.714z" style="display:inline;fill:#fff;stroke-width:12.5"/></svg>