<svg xmlns="http://www.w3.org/2000/svg" width="45" height="57" data-name="Layer 1"><defs><linearGradient id="a" x1="6.605" x2="36.975" y1="7.344" y2="42.178" gradientUnits="userSpaceOnUse"><stop offset="0" stop-color="#ffff2e" style="stop-color:#fff21c;stop-opacity:1"/><stop offset="1" stop-color="#ff913d" style="stop-color:#fea40c;stop-opacity:1"/></linearGradient></defs><path d="M43.95 22.348c0 13.507-9.597 27.602-21.44 27.602-11.842 0-21.46-14.063-21.46-27.602C1.05 8.81 10.668 1.05 22.51 1.05c11.843 0 21.44 7.803 21.44 21.298Z" style="display:inline;fill:url(#a);stroke:#000;stroke-width:2.1;stroke-dasharray:none;stroke-opacity:1"/><path d="M37.5 24.5c0 8.308-4.983 18-15 18-10.023 0-15-9.692-15-18h30" style="fill:#000;stroke:none;stroke-width:0;stroke-dasharray:none;stroke-opacity:1"/><path d="M35.5 26.777c0 6.24-4.319 13.52-13 13.52-8.685 0-13-7.28-13-13.52h26" style="fill:#fff;stroke:none;stroke-width:0;stroke-dasharray:none;stroke-opacity:1"/><path d="M19.57 14.868c-3.878-1.028-7.521.097-9.939 3.07-.327.423-1.97-1.454-1.568-1.963 2.79-3.43 6.994-4.732 11.47-3.546.655.185.578 2.59.039 2.44M35.89 17.671c-2.844-2.829-6.562-3.677-10.143-2.31-.495.202-.979-2.246-.376-2.485 4.131-1.575 8.423-.601 11.706 2.664.475.487-.795 2.532-1.186 2.132" style="display:inline;fill:#000;fill-opacity:1;stroke-width:1.06955"/></svg>