<svg xmlns="http://www.w3.org/2000/svg" xmlns:xlink="http://www.w3.org/1999/xlink" width="45" height="57" data-name="Layer 1"><defs><linearGradient id="c" x1="6.605" x2="36.975" y1="7.344" y2="42.178" gradientUnits="userSpaceOnUse"><stop offset="0" stop-color="#ffff2e" style="stop-color:#fff21c;stop-opacity:1"/><stop offset="1" stop-color="#ff913d" style="stop-color:#fea40c;stop-opacity:1"/></linearGradient><linearGradient xlink:href="#a" id="d" x1="37.548" x2="43.639" y1="8.141" y2="3.312" gradientUnits="userSpaceOnUse"/><linearGradient id="a"><stop offset="0" style="stop-color:#fecd00;stop-opacity:1"/><stop offset="1" style="stop-color:red;stop-opacity:1"/></linearGradient><linearGradient xlink:href="#b" id="e" x1="7.424" x2="1.346" y1="8.065" y2="3.027" gradientUnits="userSpaceOnUse"/><linearGradient id="b"><stop offset="0" style="stop-color:#fff21c;stop-opacity:1"/><stop offset="1" style="stop-color:red;stop-opacity:1"/></linearGradient></defs><path d="M10.714 7.056a20.495 16.704 0 0 0-6.772 7.635C.56 10.361-.338 5.355.106 0c3.222 3.3 6.69 5.86 10.608 7.056ZM34.286 7.193A20.399 17.055 0 0 1 41.076 15c3.368-4.421 4.261-9.533 3.819-15-3.207 3.37-6.659 5.983-10.61 7.193Z" class="cls-1" style="fill:#000;stroke-width:1"/><path d="M43.95 22.348c0 13.507-9.597 27.602-21.44 27.602-11.842 0-21.46-14.063-21.46-27.602C1.05 8.81 10.668 1.05 22.51 1.05c11.843 0 21.44 7.803 21.44 21.298Z" style="display:inline;fill:url(#c);stroke:#000;stroke-width:2.1;stroke-dasharray:none;stroke-opacity:1"/><path d="M30.666 38.08c-5.027-2.072-10.981-2.046-16.243.069-.726.308-2.008-1.93-1.123-2.297 6.072-2.44 12.944-2.471 18.746-.081.845.36-.685 2.606-1.377 2.31" style="display:inline;fill:#000;fill-opacity:1;stroke-width:1.57059"/><path d="M25.162 21.068c4.147-1.192 7.004-4.081 7.792-7.882.097-.532 2.571.183 2.447.827-.91 4.385-4.204 7.722-8.99 9.099-.706.192-1.83-1.884-1.25-2.043M11.557 13.162c1.192 4.147 4.08 7.004 7.882 7.792.531.097-.183 2.571-.828 2.447-4.385-.91-7.722-4.204-9.099-8.99-.191-.706 1.885-1.83 2.044-1.25" style="display:inline;fill:#000;fill-opacity:1;stroke-width:1.06955"/><path d="M13.394 29.196a4.525 4.526 0 0 1-3.22-1.333 4.52 4.52 0 0 1-1.335-3.22 4.558 4.559 0 0 1 4.554-4.554 4.56 4.56 0 0 1 4.553 4.555 4.523 4.524 0 0 1-1.333 3.22 4.522 4.523 0 0 1-3.22 1.332" style="display:inline;fill:red;fill-opacity:1;fill-rule:nonzero;stroke:#000;stroke-width:1.5;stroke-dasharray:none;stroke-opacity:1"/><path d="M36.662 8.155c1.591 1.346 2.984 2.727 3.474 4.603 2.253-2.373 3.17-5.293 3.363-8.497-2.077 1.772-4.516 3.422-6.837 3.894z" class="cls-1" style="display:inline;fill:url(#d);stroke-width:.99999"/><path d="M8.848 7.945a10.071 12.404 89.78 0 0-3.604 4.873c-2.312-2.457-3.168-5.427-3.236-8.662 2.15 1.846 4.402 3.237 6.84 3.79Z" class="cls-1" style="display:inline;fill:url(#e);stroke-width:.999999"/><path d="M31.608 29.196a4.525 4.526 0 0 1-3.22-1.333 4.52 4.52 0 0 1-1.334-3.22 4.558 4.559 0 0 1 4.553-4.554 4.56 4.56 0 0 1 4.554 4.555 4.523 4.524 0 0 1-1.334 3.22 4.522 4.523 0 0 1-3.22 1.332" style="display:inline;fill:red;fill-opacity:1;fill-rule:nonzero;stroke:#000;stroke-width:1.5;stroke-dasharray:none;stroke-opacity:1"/></svg>