<svg xmlns="http://www.w3.org/2000/svg" xmlns:xlink="http://www.w3.org/1999/xlink" width="51" height="57" data-name="Layer 1"><defs><linearGradient id="b" x1="11.495" x2="40.887" y1="8.183" y2="44.553" gradientUnits="userSpaceOnUse"><stop offset="0" stop-color="#ffff2e" style="stop-color:#fff21c;stop-opacity:1"/><stop offset="1" stop-color="#ff913d" style="stop-color:#fea40c;stop-opacity:1"/></linearGradient><linearGradient xlink:href="#a" id="c" x1=".463" x2="26.01" y1="30.295" y2="53.433" gradientUnits="userSpaceOnUse"/><linearGradient id="a"><stop offset="0" style="stop-color:#ffff2e;stop-opacity:1"/><stop offset="1" style="stop-color:#ff913d;stop-opacity:1"/></linearGradient></defs><path d="M49.95 22.348c0 13.507-9.597 27.602-21.44 27.602-11.842 0-21.46-14.063-21.46-27.602C7.05 8.81 16.668 1.05 28.51 1.05c11.843 0 21.44 7.803 21.44 21.298Z" style="display:inline;fill:url(#b);stroke:#000;stroke-width:2.1;stroke-dasharray:none;stroke-opacity:1"/><path d="M33.533 36.5h-9.066c-.623 0-.623-3 0-3h9.066c.623 0 .623 3 0 3" style="display:inline;fill:#000;fill-opacity:1;stroke:none;stroke-width:0;stroke-dasharray:none;stroke-opacity:1"/><path d="M16.777 42.656c.99-.432 1.845.39 2.1 1.152.304.91-.186 2.2-1.177 2.63-.159.07.04.018-.13.043l-1.974.68-.906.233 1.702-.561c.991-.431 1.985.07 2.413 1.068.428.998-.34 2.24-1.333 2.673a5.805 5.805 0 0 1-.863.24l-.866.335-5.4 1.428c-4.506.97-8.4-2.207-9.363-6.742a11.003 11.003 0 0 1 1.203-7.67s1.696-1.314 2.29-2.45c.595-1.135.92-4.237.92-4.237.944-1.1 2.153-.755 2.665-.257.512.497 1.012 1.668 1.163 2.564.152.895.366 2.804.366 2.804l.305-.096s8.58-2.312 13.13-3.612a1.95 1.95 0 0 1 2.57 1.026 1.974 1.974 0 0 1-1.02 2.588c-.821.358-8.169 2.02-12.187 3.459l3.214-1.006c.99-.432 2.123-.041 2.55.958.43.997-.655 2.325-1.646 2.757a7.34 7.34 0 0 1-.968.268l-1.947.645" style="display:inline;fill:url(#c);fill-opacity:1;stroke:#000;stroke-width:1.5;stroke-dasharray:none;stroke-opacity:1"/><ellipse cx="37.5" cy="18.5" rx="6.75" ry="6.75"  style="fill:#fff;stroke:#000;stroke-width:1.5"><animate id="z" fill="remove" attributeName="ry" attributeType="XML" begin="0.1s;z.end+0.7s" dur="0.2s" repeatCount="1" to="2"/></ellipse><ellipse cx="19.5" cy="18.5" rx="6.75" ry="6.75" style="fill:#fff;stroke:#000;stroke-width:1.5"><animate fill="remove" attributeName="ry" attributeType="XML" begin="0.1s;z.end+0.7s" dur="0.2s" repeatCount="1" to="2"/></ellipse><path d="M36 18.5a2.5 2.5 0 1 0-5 0 2.5 2.5 0 0 0 5 0" style="display:inline;fill:#000;fill-opacity:1;fill-rule:nonzero;stroke:none;stroke-width:0;stroke-dasharray:none"><animate attributeName="d" begin="0s" dur="2.4s" repeatCount="indefinite" values="m 36,18.5 a 2.5,2.5 0 1 0 -5,0 2.5,2.5 0 0 0 5,0; m 36,18.5 a 2.5,2.5 0 1 0 -5,0 2.5,2.5 0 0 0 5,0; m 36,18.5 a 2.5,2.5 0 1 0 -5,0 2.5,2.5 0 0 0 5,0; m 44,18.5 a 2.5,2.5 0 1 0 -5,0 2.5,2.5 0 0 0 5,0; m 44,18.5 a 2.5,2.5 0 1 0 -5,0 2.5,2.5 0 0 0 5,0; m 44,18.5 a 2.5,2.5 0 1 0 -5,0 2.5,2.5 0 0 0 5,0; m 36,18.5 a 2.5,2.5 0 1 0 -5,0 2.5,2.5 0 0 0 5,0; m 36,18.5 a 2.5,2.5 0 1 0 -5,0 2.5,2.5 0 0 0 5,0; m 36,18.5 a 2.5,2.5 0 1 0 -5,0 2.5,2.5 0 0 0 5,0"/></path><path d="M18 18.5a2.5 2.5 0 1 0-5 0 2.5 2.5 0 0 0 5 0" style="display:inline;fill:#000;fill-opacity:1;fill-rule:nonzero;stroke:none;stroke-width:0;stroke-dasharray:none"><animate attributeName="d" begin="0s" dur="2.4s" repeatCount="indefinite" values="m 18,18.500707 a 2.5000001,2.5000001 0 1 0 -5,0 2.5000001,2.5000001 0 0 0 5,0; m 18,18.500707 a 2.5000001,2.5000001 0 1 0 -5,0 2.5000001,2.5000001 0 0 0 5,0; m 18,18.500707 a 2.5000001,2.5000001 0 1 0 -5,0 2.5000001,2.5000001 0 0 0 5,0; m 26,18.500707 a 2.5000001,2.5000001 0 1 0 -5,0 2.5000001,2.5000001 0 0 0 5,0; m 26,18.500707 a 2.5000001,2.5000001 0 1 0 -5,0 2.5000001,2.5000001 0 0 0 5,0; m 26,18.500707 a 2.5000001,2.5000001 0 1 0 -5,0 2.5000001,2.5000001 0 0 0 5,0;m 18,18.500707 a 2.5000001,2.5000001 0 1 0 -5,0 2.5000001,2.5000001 0 0 0 5,0; m 18,18.500707 a 2.5000001,2.5000001 0 1 0 -5,0 2.5000001,2.5000001 0 0 0 5,0; m 18,18.500707 a 2.5000001,2.5000001 0 1 0 -5,0 2.5000001,2.5000001 0 0 0 5,0"/></path></svg>