<svg xmlns="http://www.w3.org/2000/svg" xmlns:xlink="http://www.w3.org/1999/xlink" width="54" height="57" data-name="Layer 1"><defs><linearGradient id="b"><stop offset="0" style="stop-color:#fff21c;stop-opacity:1"/><stop offset="1" style="stop-color:#fea40c;stop-opacity:1"/></linearGradient><linearGradient id="a"><stop offset="0" style="stop-color:#fff21c;stop-opacity:1"/><stop offset="1" style="stop-color:#fea40c;stop-opacity:1"/></linearGradient><linearGradient id="c" x1="11.406" x2="41.363" y1="6.848" y2="42.096" gradientUnits="userSpaceOnUse"><stop offset="0" stop-color="#ffff2e" style="stop-color:#fff21c;stop-opacity:1"/><stop offset="1" stop-color="#ff913d" style="stop-color:#fea40c;stop-opacity:1"/></linearGradient><linearGradient xlink:href="#a" id="d" x1="26.441" x2="35.679" y1="24.257" y2="53.791" gradientUnits="userSpaceOnUse"/><linearGradient xlink:href="#b" id="f" x1="16.764" x2="28.37" y1="24.177" y2="53.749" gradientUnits="userSpaceOnUse"/><linearGradient xlink:href="#b" id="e" x1="26.264" x2="38.236" y1="24.177" y2="53.676" gradientUnits="userSpaceOnUse"/></defs><path d="M48.45 22.348c0 13.507-9.597 27.602-21.44 27.602-11.842 0-21.46-14.063-21.46-27.602C5.55 8.81 15.168 1.05 27.01 1.05c11.843 0 21.44 7.803 21.44 21.298Z" style="display:inline;fill:url(#c);stroke:#000;stroke-width:2.1;stroke-dasharray:none;stroke-opacity:1"/><path d="M39.5 33c0 4.616-4.152 10-12.5 10-8.352 0-12.5-5.384-12.5-10h25" style="fill:#000;stroke:none;stroke-width:0;stroke-dasharray:none;stroke-opacity:1"/><path d="M36.66 35.222c0 2.564-3.21 5.556-9.66 5.556-6.453 0-9.66-2.992-9.66-5.556h19.32" style="fill:#fff;stroke:none;stroke-width:0;stroke-dasharray:none;stroke-opacity:1"/><path d="M22.836 11.996c-3.285.046-6.147 1.809-7.808 4.808-.223.424-1.77-.742-1.496-1.255 1.916-3.46 5.22-5.495 9.01-5.549.558 0 .753 1.996.295 1.996" style="display:inline;fill:#000;fill-opacity:1;stroke-width:1.0443"/><path d="M38.578 16.804c-1.648-3.021-4.525-4.727-7.849-4.653-.463.021-.245-2.04.317-2.06 3.835-.085 7.157 1.881 9.06 5.368.271.516-1.303 1.77-1.527 1.346" style="display:inline;fill:#000;fill-opacity:1;stroke-width:1.06955"/><path d="M22.556 20.391a2.5 2.5 0 1 0-5 0 2.5 2.5 0 0 0 5 0m14 0a2.5 2.5 0 1 0-5 0 2.5 2.5 0 0 0 5 0" style="display:inline;fill:#000;fill-opacity:1;fill-rule:nonzero;stroke:none;stroke-width:0;stroke-dasharray:none"/><path d="M27.5 51.216v-1.284l.69-2.769.69-2.768.022-2.737c.022-2.718.023-2.738.123-2.997.125-.327.287-.533.513-.657.367-.202.8-.078 1.079.31.287.399.274.17.3 5.064l.023 4.457.098.19c.16.305.496.454.802.356.238-.076.457-.333.52-.61.034-.153.044-1.625.037-5.028l-.012-4.812-1.845-4.873c-1.015-2.68-1.868-4.984-1.896-5.118-.064-.31-.064-.948-.002-1.292.064-.357.398-.795.763-1 .145-.081.293-.148.33-.148.086 0 .6.623 1 1.213.706 1.04 1.812 2.999 2.92 5.172.38.745.882 1.719 1.117 2.163 1.543 2.922 2.117 4.86 2.219 7.488.059 1.55-.192 3.426-.64 4.763a30.062 30.062 0 0 0-1.247 5.42c-.04.3-.081.6-.091.664l-.021.117H27.5z" style="fill:url(#e);stroke:#000;stroke-width:3;paint-order:stroke fill markers"><animate attributeName="d" dur="0.5s" repeatCount="indefinite" values="m 27.500178,51.216074 v -1.2838 l 0.68959,-2.768818 0.68959,-2.768817 0.02248,-2.736498 c 0.02232,-2.71864 0.02314,-2.738197 0.123097,-2.997115 0.125559,-0.326775 0.287309,-0.533 0.512577,-0.656975 0.367321,-0.20225 0.800131,-0.078 1.079315,0.3098 0.287062,0.398975 0.273768,0.171 0.299372,5.064385 l 0.02352,4.45658 0.09848,0.19 c 0.160026,0.305075 0.495589,0.4546 0.801362,0.3566 0.238809,-0.0765 0.457429,-0.33305 0.520455,-0.6113 0.03447,-0.152 0.04431,-1.6238 0.03693,-5.026792 l -0.01185,-4.81195 -1.845472,-4.873571 c -1.015058,-2.680462 -1.867875,-4.983642 -1.895448,-5.118177 -0.06401,-0.309575 -0.06401,-0.9479 -0.0023,-1.291175 0.06401,-0.357575 0.398342,-0.795225 0.762955,-1.00045 0.145255,-0.0815 0.293218,-0.148 0.3299,-0.148 0.08617,-5.3e-5 0.599483,0.623425 1.000041,1.2131 0.706085,1.0397 1.811989,2.998535 2.919642,5.172018 0.379877,0.745375 0.882606,1.718775 1.117229,2.16315 1.543145,2.922075 2.117516,4.860255 2.218948,7.487382 0.05909,1.549775 -0.192032,3.426295 -0.640351,4.763593 -0.5628,1.680175 -1.015551,3.648922 -1.246481,5.418972 -0.03939,0.301025 -0.08124,0.600075 -0.09109,0.664575 l -0.02081,0.11725 h -3.745796 -3.745967 z; m 43.000178,51.216074 v -1.2838 l 0.68959,-2.768818 0.68959,-2.768817 0.02248,-2.736498 c 0.02232,-2.71864 0.02314,-2.738197 0.123097,-2.997115 0.125559,-0.326775 0.287309,-0.533 0.512577,-0.656975 0.367321,-0.20225 0.800131,-0.078 1.079315,0.3098 0.287062,0.398975 0.273768,0.171 0.299372,5.064385 l 0.02352,4.45658 0.09848,0.19 c 0.160026,0.305075 0.495589,0.4546 0.801362,0.3566 0.238809,-0.0765 0.457429,-0.33305 0.520455,-0.6113 0.03447,-0.152 0.04431,-1.6238 0.03693,-5.026792 l -0.01185,-4.81195 -1.845472,-4.873571 c -1.015058,-2.680462 -1.867875,-4.983642 -1.895448,-5.118177 -0.06401,-0.309575 -0.06401,-0.9479 -0.0023,-1.291175 0.06401,-0.357575 0.398342,-0.795225 0.762955,-1.00045 0.145255,-0.0815 0.293218,-0.148 0.3299,-0.148 0.08617,-5.3e-5 0.599483,0.623425 1.000041,1.2131 0.706085,1.0397 1.811989,2.998535 2.919642,5.172018 0.379877,0.745375 0.882606,1.718775 1.117229,2.16315 1.543145,2.922075 2.117516,4.860255 2.218948,7.487382 0.05909,1.549775 -0.192032,3.426295 -0.640351,4.763593 -0.5628,1.680175 -1.015551,3.648922 -1.246481,5.418972 -0.03939,0.301025 -0.08124,0.600075 -0.09109,0.664575 l -0.02081,0.11725 h -3.745796 -3.745967 z; m 27.500178,51.216074 v -1.2838 l 0.68959,-2.768818 0.68959,-2.768817 0.02248,-2.736498 c 0.02232,-2.71864 0.02314,-2.738197 0.123097,-2.997115 0.125559,-0.326775 0.287309,-0.533 0.512577,-0.656975 0.367321,-0.20225 0.800131,-0.078 1.079315,0.3098 0.287062,0.398975 0.273768,0.171 0.299372,5.064385 l 0.02352,4.45658 0.09848,0.19 c 0.160026,0.305075 0.495589,0.4546 0.801362,0.3566 0.238809,-0.0765 0.457429,-0.33305 0.520455,-0.6113 0.03447,-0.152 0.04431,-1.6238 0.03693,-5.026792 l -0.01185,-4.81195 -1.845472,-4.873571 c -1.015058,-2.680462 -1.867875,-4.983642 -1.895448,-5.118177 -0.06401,-0.309575 -0.06401,-0.9479 -0.0023,-1.291175 0.06401,-0.357575 0.398342,-0.795225 0.762955,-1.00045 0.145255,-0.0815 0.293218,-0.148 0.3299,-0.148 0.08617,-5.3e-5 0.599483,0.623425 1.000041,1.2131 0.706085,1.0397 1.811989,2.998535 2.919642,5.172018 0.379877,0.745375 0.882606,1.718775 1.117229,2.16315 1.543145,2.922075 2.117516,4.860255 2.218948,7.487382 0.05909,1.549775 -0.192032,3.426295 -0.640351,4.763593 -0.5628,1.680175 -1.015551,3.648922 -1.246481,5.418972 -0.03939,0.301025 -0.08124,0.600075 -0.09109,0.664575 l -0.02081,0.11725 h -3.745796 -3.745967 z"/></path><path d="M27.5 51.216v-1.284l-.69-2.769-.69-2.768-.022-2.737c-.022-2.718-.023-2.738-.123-2.997-.125-.327-.287-.533-.512-.657-.368-.202-.8-.078-1.08.31-.287.399-.274.17-.3 5.064l-.023 4.457-.098.19c-.16.305-.496.454-.802.356-.238-.076-.457-.333-.52-.61-.034-.153-.044-1.625-.037-5.028l.012-4.812 1.845-4.873c1.015-2.68 1.868-4.984 1.896-5.118.064-.31.064-.948.002-1.292-.064-.357-.398-.795-.763-1-.145-.081-.293-.148-.33-.148-.086 0-.6.623-1 1.213-.706 1.04-1.812 2.999-2.92 5.172-.38.745-.882 1.719-1.117 2.163-1.543 2.922-2.117 4.86-2.219 7.488-.059 1.55.192 3.426.64 4.763a30.062 30.062 0 0 1 1.247 5.42c.04.3.081.6.091.664l.021.117H27.5z" style="fill:url(#f);stroke:#000;stroke-width:3;paint-order:stroke fill markers"><animate attributeName="d" dur="0.5s" repeatCount="indefinite" values="m 27.499838,51.216074 v -1.2838 l -0.68959,-2.768818 -0.68959,-2.768817 -0.02248,-2.736498 c -0.02232,-2.71864 -0.02314,-2.738197 -0.123097,-2.997115 -0.125559,-0.326775 -0.287309,-0.533 -0.512577,-0.656975 -0.367321,-0.20225 -0.800131,-0.078 -1.079315,0.3098 -0.287062,0.398975 -0.273768,0.171 -0.299372,5.064385 l -0.02352,4.45658 -0.09848,0.19 c -0.160026,0.305075 -0.495589,0.4546 -0.801362,0.3566 -0.238809,-0.0765 -0.457429,-0.33305 -0.520455,-0.6113 -0.03447,-0.152 -0.04431,-1.6238 -0.03693,-5.026792 l 0.01185,-4.81195 1.845472,-4.873571 c 1.015058,-2.680462 1.867875,-4.983642 1.895448,-5.118177 0.06401,-0.309575 0.06401,-0.9479 0.0023,-1.291175 -0.06401,-0.357575 -0.398342,-0.795225 -0.762955,-1.00045 -0.145255,-0.0815 -0.293218,-0.148 -0.3299,-0.148 -0.08617,-5.3e-5 -0.599483,0.623425 -1.000041,1.2131 -0.706085,1.0397 -1.811989,2.998535 -2.919642,5.172018 -0.379877,0.745375 -0.882606,1.718775 -1.117229,2.16315 -1.543145,2.922075 -2.117516,4.860255 -2.218948,7.487382 -0.05909,1.549775 0.192032,3.426295 0.640351,4.763593 0.5628,1.680175 1.015551,3.648922 1.246481,5.418972 0.03939,0.301025 0.08124,0.600075 0.09109,0.664575 l 0.02081,0.11725 h 3.745796 3.745967 z; m 10.999838,51.216074 v -1.2838 l -0.68959,-2.768818 -0.6895902,-2.768817 -0.02248,-2.736498 c -0.02232,-2.71864 -0.02314,-2.738197 -0.123097,-2.997115 -0.125559,-0.326775 -0.287309,-0.533 -0.512577,-0.656975 -0.367321,-0.20225 -0.800131,-0.078 -1.079315,0.3098 -0.287062,0.398975 -0.273768,0.171 -0.299372,5.064385 l -0.02352,4.45658 -0.09848,0.19 c -0.160026,0.305075 -0.495589,0.4546 -0.801362,0.3566 -0.238809,-0.0765 -0.457429,-0.33305 -0.520455,-0.6113 -0.03447,-0.152 -0.04431,-1.6238 -0.03693,-5.026792 l 0.01185,-4.81195 1.845472,-4.873571 c 1.015058,-2.680462 1.867875,-4.983642 1.895448,-5.118177 0.06401,-0.309575 0.06401,-0.9479 0.0023,-1.291175 -0.06401,-0.357575 -0.398342,-0.795225 -0.762955,-1.00045 -0.145255,-0.0815 -0.293218,-0.148 -0.3299,-0.148 -0.08617,-5.3e-5 -0.599483,0.623425 -1.000041,1.2131 -0.706085,1.0397 -1.811989,2.998535 -2.919642,5.172018 -0.379877,0.745375 -0.882606,1.718775 -1.117229,2.16315 -1.543145,2.922075 -2.117516,4.860255 -2.218948,7.487382 -0.05909,1.549775 0.192032,3.426295 0.640351,4.763593 0.5628,1.680175 1.015551,3.648922 1.246481,5.418972 0.03939,0.301025 0.08124,0.600075 0.09109,0.664575 l 0.02081,0.11725 h 3.745796 3.7459672 z; m 27.499838,51.216074 v -1.2838 l -0.68959,-2.768818 -0.68959,-2.768817 -0.02248,-2.736498 c -0.02232,-2.71864 -0.02314,-2.738197 -0.123097,-2.997115 -0.125559,-0.326775 -0.287309,-0.533 -0.512577,-0.656975 -0.367321,-0.20225 -0.800131,-0.078 -1.079315,0.3098 -0.287062,0.398975 -0.273768,0.171 -0.299372,5.064385 l -0.02352,4.45658 -0.09848,0.19 c -0.160026,0.305075 -0.495589,0.4546 -0.801362,0.3566 -0.238809,-0.0765 -0.457429,-0.33305 -0.520455,-0.6113 -0.03447,-0.152 -0.04431,-1.6238 -0.03693,-5.026792 l 0.01185,-4.81195 1.845472,-4.873571 c 1.015058,-2.680462 1.867875,-4.983642 1.895448,-5.118177 0.06401,-0.309575 0.06401,-0.9479 0.0023,-1.291175 -0.06401,-0.357575 -0.398342,-0.795225 -0.762955,-1.00045 -0.145255,-0.0815 -0.293218,-0.148 -0.3299,-0.148 -0.08617,-5.3e-5 -0.599483,0.623425 -1.000041,1.2131 -0.706085,1.0397 -1.811989,2.998535 -2.919642,5.172018 -0.379877,0.745375 -0.882606,1.718775 -1.117229,2.16315 -1.543145,2.922075 -2.117516,4.860255 -2.218948,7.487382 -0.05909,1.549775 0.192032,3.426295 0.640351,4.763593 0.5628,1.680175 1.015551,3.648922 1.246481,5.418972 0.03939,0.301025 0.08124,0.600075 0.09109,0.664575 l 0.02081,0.11725 h 3.745796 3.745967 z"/></path></svg>