<svg xmlns="http://www.w3.org/2000/svg" width="45" height="57" data-name="Layer 1"><defs><linearGradient id="a" x1="6.133" x2="36.67" y1="7.319" y2="41.911" gradientUnits="userSpaceOnUse"><stop offset="0" stop-color="#ffff2e" style="stop-color:#fff21c;stop-opacity:1"/><stop offset="1" stop-color="#ff913d" style="stop-color:#fea40c;stop-opacity:1"/></linearGradient></defs><path d="M43.95 22.348c0 13.507-9.597 27.602-21.44 27.602-11.842 0-21.46-14.063-21.46-27.602C1.05 8.81 10.668 1.05 22.51 1.05c11.843 0 21.44 7.803 21.44 21.298Z" style="display:inline;fill:url(#a);stroke:#000;stroke-width:2.1;stroke-dasharray:none;stroke-opacity:1"/><path d="M22.5 46A10.5 12.5 0 0 1 12 33.5 10.5 12.5 0 0 1 22.5 21 10.5 12.5 0 0 1 33 33.5 10.5 12.5 0 0 1 22.5 46Z" style="display:inline;fill:#000;stroke:none;stroke-width:0;stroke-dasharray:none;stroke-opacity:1"><animate attributeName="d" begin="0s" dur="4s" repeatCount="indefinite" values="m 22.499999,46 a 10.499999,12.5 0 0 1 -10.5,-12.500001 A 10.499999,12.5 0 0 1 22.499999,21 10.499999,12.5 0 0 1 32.999998,33.499999 10.499999,12.5 0 0 1 22.499999,46 Z; M 16.425672,42.537314 A 4.4256715,5.268657 0 0 1 12,37.268656 4.4256715,5.268657 0 0 1 16.425672,32 a 4.4256715,5.268657 0 0 1 4.425672,5.268656 4.4256715,5.268657 0 0 1 -4.425672,5.268658 z; M 16.425672,42.537314 A 4.4256715,5.268657 0 0 1 12,37.268656 4.4256715,5.268657 0 0 1 16.425672,32 a 4.4256715,5.268657 0 0 1 4.425672,5.268656 4.4256715,5.268657 0 0 1 -4.425672,5.268658 z; m 22.499999,46 a 10.499999,12.5 0 0 1 -10.5,-12.500001 A 10.499999,12.5 0 0 1 22.499999,21 10.499999,12.5 0 0 1 32.999998,33.499999 10.499999,12.5 0 0 1 22.499999,46 Z"/></path><path d="M36.01 19.27c-2.55-2.654-6.009-3.615-9.437-2.623-.475.15-.822-2.03-.244-2.206 3.955-1.144 7.948-.037 10.89 3.024.426.456-.858 2.179-1.208 1.804" style="display:inline;fill:#000;fill-opacity:1;stroke-width:1.06955"><animate attributeName="d" begin="0s" dur="4s" repeatCount="indefinite" values="M 36.009467,14.269271 C 33.459615,11.616496 30.001095,10.655239 26.572651,11.647367 26.09791,11.7964 25.750984,9.6173345 26.328836,9.4406245 c 3.954741,-1.143289 7.948148,-0.0362 10.891111,3.0242925 0.425334,0.455612 -0.859258,2.179063 -1.209406,1.804354; m 36.009467,19.269271 c -2.549852,-2.652775 -6.008372,-3.614032 -9.436816,-2.621904 -0.474741,0.149033 -0.821667,-2.030032 -0.243815,-2.206742 3.954741,-1.143289 7.948148,-0.0362 10.891111,3.024292 0.425334,0.455612 -0.859258,2.179063 -1.209406,1.804354; m 36.009467,19.269271 c -2.549852,-2.652775 -6.008372,-3.614032 -9.436816,-2.621904 -0.474741,0.149033 -0.821667,-2.030032 -0.243815,-2.206742 3.954741,-1.143289 7.948148,-0.0362 10.891111,3.024292 0.425334,0.455612 -0.859258,2.179063 -1.209406,1.804354; M 36.009467,14.269271 C 33.459615,11.616496 30.001095,10.655239 26.572651,11.647367 26.09791,11.7964 25.750984,9.6173345 26.328836,9.4406245 c 3.954741,-1.143289 7.948148,-0.0362 10.891111,3.0242925 0.425334,0.455612 -0.859258,2.179063 -1.209406,1.804354"/></path><path d="M18.727 16.477c-3.421-.858-6.88.166-9.438 2.792-.35.375-1.63-1.25-1.203-1.702 2.95-3.03 6.943-4.212 10.891-3.223.578.154.226 2.26-.25 2.133" style="display:inline;fill:#000;fill-opacity:1;stroke-width:1.0443"><animate attributeName="d" begin="0s" dur="4s" repeatCount="indefinite" values="m 18.726827,11.477198 c -3.420926,-0.858 -6.880518,0.166064 -9.437888,2.792226 -0.349074,0.37471 -1.629371,-1.249743 -1.202964,-1.702161 2.950482,-3.0306785 6.942816,-4.2122905 10.891111,-3.2233565 0.577852,0.154356 0.225557,2.2599695 -0.249185,2.1332915; m 18.726827,16.477198 c -3.420926,-0.858 -6.880518,0.166064 -9.437888,2.792226 -0.349074,0.37471 -1.629371,-1.249743 -1.202964,-1.702161 2.950482,-3.030678 6.942816,-4.21229 10.891111,-3.223356 0.577852,0.154356 0.225557,2.259969 -0.249185,2.133291; m 18.726827,16.477198 c -3.420926,-0.858 -6.880518,0.166064 -9.437888,2.792226 -0.349074,0.37471 -1.629371,-1.249743 -1.202964,-1.702161 2.950482,-3.030678 6.942816,-4.21229 10.891111,-3.223356 0.577852,0.154356 0.225557,2.259969 -0.249185,2.133291; m 18.726827,11.477198 c -3.420926,-0.858 -6.880518,0.166064 -9.437888,2.792226 -0.349074,0.37471 -1.629371,-1.249743 -1.202964,-1.702161 2.950482,-3.0306785 6.942816,-4.2122905 10.891111,-3.2233565 0.577852,0.154356 0.225557,2.2599695 -0.249185,2.1332915"/></path><path d="M22.619 44.765c2.761 0 5.269-1.57 7.157-4.122l-.07-.162c0-5.094-3.174-9.223-7.087-9.223-3.912 0-7.084 4.129-7.084 9.223l-.017.24c1.885 2.504 4.369 4.044 7.101 4.044z" style="display:inline;fill:red;fill-opacity:1;stroke:none;stroke-width:0;stroke-dasharray:none"><animate attributeName="d" begin="0s" dur="4s" repeatCount="indefinite" values="m 22.618998,44.765041 c 2.7615,0 5.268666,-1.569584 7.1575,-4.12234 l -0.07117,-0.161318 c 0,-5.094611 -3.173334,-9.223491 -7.086335,-9.223491 -3.911832,0 -7.083997,4.12888 -7.083997,9.223491 l -0.01749,0.239797 c 1.885332,2.503706 4.369166,4.043861 7.101498,4.043861 z; m 14.000498,38.001 c 1.93e-4,0 3.69e-4,-1.16e-4 5.02e-4,-3.05e-4 l -5e-6,-1.2e-5 c 0,-3.77e-4 -2.23e-4,-6.83e-4 -4.97e-4,-6.83e-4 -2.75e-4,0 -4.97e-4,3.06e-4 -4.97e-4,6.83e-4 L 14,38.000701 c 1.32e-4,1.85e-4 3.06e-4,2.99e-4 4.98e-4,2.99e-4 z; m 14.000498,38.001 c 1.93e-4,0 3.69e-4,-1.16e-4 5.02e-4,-3.05e-4 l -5e-6,-1.2e-5 c 0,-3.77e-4 -2.23e-4,-6.83e-4 -4.97e-4,-6.83e-4 -2.75e-4,0 -4.97e-4,3.06e-4 -4.97e-4,6.83e-4 L 14,38.000701 c 1.32e-4,1.85e-4 3.06e-4,2.99e-4 4.98e-4,2.99e-4 z; m 22.618998,44.765041 c 2.7615,0 5.268666,-1.569584 7.1575,-4.12234 l -0.07117,-0.161318 c 0,-5.094611 -3.173334,-9.223491 -7.086335,-9.223491 -3.911832,0 -7.083997,4.12888 -7.083997,9.223491 l -0.01749,0.239797 c 1.885332,2.503706 4.369166,4.043861 7.101498,4.043861 z"/></path></svg>