<svg xmlns="http://www.w3.org/2000/svg" xmlns:xlink="http://www.w3.org/1999/xlink" width="54" height="57" data-name="Layer 1"><defs><linearGradient id="a"><stop offset="0" style="stop-color:#fff21c;stop-opacity:1"/><stop offset="1" style="stop-color:#fea40c;stop-opacity:1"/></linearGradient><linearGradient id="b" x1="11.406" x2="41.363" y1="6.848" y2="42.096" gradientUnits="userSpaceOnUse"><stop offset="0" style="stop-color:#fff21c;stop-opacity:1"/><stop offset="1" style="stop-color:#fea40c;stop-opacity:1"/></linearGradient><linearGradient xlink:href="#a" id="c" x1="25.089" x2="37.514" y1="24.221" y2="53.706" gradientUnits="userSpaceOnUse"/><linearGradient xlink:href="#a" id="d" x1="16.077" x2="28.722" y1="24.221" y2="53.486" gradientUnits="userSpaceOnUse"/></defs><path d="M48.45 22.348c0 13.507-9.597 27.602-21.44 27.602-11.842 0-21.46-14.063-21.46-27.602C5.55 8.81 15.168 1.05 27.01 1.05c11.843 0 21.44 7.803 21.44 21.298Z" style="display:inline;fill:url(#b);stroke:#000;stroke-width:2.1;stroke-dasharray:none;stroke-opacity:1"/><path d="M39.5 33c0 4.616-4.152 10-12.5 10-8.352 0-12.5-5.384-12.5-10h25" style="fill:#000;stroke:none;stroke-width:0;stroke-dasharray:none;stroke-opacity:1"/><path d="M36.66 35.222c0 2.564-3.21 5.556-9.66 5.556-6.453 0-9.66-2.992-9.66-5.556h19.32" style="fill:#fff;stroke:none;stroke-width:0;stroke-dasharray:none;stroke-opacity:1"/><path d="M22.836 11.996c-3.285.046-6.147 1.809-7.808 4.808-.223.424-1.77-.742-1.496-1.255 1.916-3.46 5.22-5.495 9.01-5.549.558 0 .753 1.996.295 1.996" style="display:inline;fill:#000;fill-opacity:1;stroke-width:1.0443"/><path d="M38.578 16.804c-1.648-3.021-4.525-4.727-7.849-4.653-.463.021-.245-2.04.317-2.06 3.835-.085 7.157 1.881 9.06 5.368.271.516-1.303 1.77-1.527 1.346" style="display:inline;fill:#000;fill-opacity:1;stroke-width:1.06955"/><path d="M22.556 20.391a2.5 2.5 0 1 0-5 0 2.5 2.5 0 0 0 5 0m14 0a2.5 2.5 0 1 0-5 0 2.5 2.5 0 0 0 5 0" style="display:inline;fill:#000;fill-opacity:1;fill-rule:nonzero;stroke:none;stroke-width:0;stroke-dasharray:none"/><path d="m26.078 47.275-.019-.828-.02-.873-.029-2.529L26 40.91v-2.214c.02-2.157.72-2.131.81-2.337.112-.26.936-.603 1.46-.624.38-.015 1.085.365 1.085.365l.044 7.499.074.15a.555.555 0 0 0 .67.283c.212-.06.433-.264.49-.485.029-.12.035-1.289.018-3.99l-.106-6.436-.584-1.126c-1.06-2.043-1.754-3.376-1.778-3.483-.055-.246.02-1.16.076-1.439.055-.278.8-1.156 1.027-1.27.226-.113 1.385-.303 1.439-.303.055 0 1.037.37 1.392.839.626.825.927 1.8 1.91 3.525.337.592.802 1.571 1.01 1.924 1.369 2.32.81 4.726.9 6.811.052 1.23.035 2.768.033 4.112 0 1.372-.017 1.403-.057 4.549-.005.391-.214 1.966-.354 2.161-.14.196-.664 1.105-1.573 1.996-.91.891-1.832 1.142-3.031 1.076-1.2-.066-2.8-.79-3.653-1.758-.853-.969-1.225-3.432-1.225-3.432z" style="display:inline;fill:url(#c);fill-opacity:1;stroke:#000;stroke-width:3;stroke-dasharray:none;paint-order:stroke fill markers"><animate attributeName="d" dur="0.4s" repeatCount="indefinite" values="m 26.077821,47.274969 -0.01851,-0.827727 -0.01954,-0.873737 -0.0296,-2.528439 -0.01017,-2.135443 5.07e-4,-2.213211 c 0.01981,-2.157674 0.720125,-2.13182 0.809136,-2.337311 0.112057,-0.259361 0.936838,-0.60279 1.46118,-0.623785 0.378669,-0.01517 1.084205,0.364784 1.084205,0.364784 l 0.0444,7.498466 0.074,0.150765 c 0.124743,0.252476 0.39833,0.360802 0.669593,0.283034 0.212062,-0.06076 0.433217,-0.264334 0.489034,-0.485149 0.0296,-0.120612 0.03594,-1.288795 0.01891,-3.989547 l -0.105715,-6.437076 -0.583965,-1.125789 c -1.059679,-2.042531 -1.754009,-3.376143 -1.778324,-3.482919 -0.05497,-0.24568 0.01972,-1.160307 0.07611,-1.438435 0.05497,-0.278106 0.800678,-1.155987 1.026483,-1.269736 0.226017,-0.113861 1.385067,-0.303691 1.439404,-0.303713 0.05497,-2.9e-5 1.036845,0.37068 1.392255,0.838682 0.626251,0.825158 0.926902,1.800654 1.90941,3.525649 0.337017,0.591563 0.80237,1.570974 1.010415,1.92363 1.368576,2.319127 0.809137,4.726111 0.899205,6.811146 0.05285,1.229996 0.03594,2.768166 0.03383,4.111604 -7.41e-4,1.372008 -0.01669,1.403669 -0.05709,4.549014 -0.0049,0.391472 -0.213543,1.966113 -0.35393,2.1615 -0.139543,0.19532 -0.664308,1.105064 -1.573238,1.996019 -0.908931,0.890955 -1.832028,1.14127 -3.031059,1.075586 -1.19922,-0.06571 -2.799986,-0.789852 -3.652952,-1.758147 -0.852901,-0.968318 -1.22438,-3.432158 -1.22438,-3.432158 z; m 42.577811,47.274969 -0.01851,-0.827727 -0.01954,-0.873737 -0.0296,-2.528439 -0.01016,-2.135443 5.07e-4,-2.213211 c 0.01981,-2.157674 0.720125,-2.13182 0.809136,-2.337311 0.112057,-0.259361 0.936839,-0.60279 1.461182,-0.623785 0.378668,-0.01517 1.084204,0.364784 1.084204,0.364784 l 0.0444,7.498466 0.074,0.150765 c 0.124744,0.252476 0.398331,0.360802 0.669594,0.283034 0.212062,-0.06076 0.433217,-0.264334 0.489034,-0.485149 0.0296,-0.120612 0.03594,-1.288795 0.0189,-3.989547 l -0.105716,-6.437076 -0.583964,-1.125789 c -1.059679,-2.042531 -1.75401,-3.376143 -1.778324,-3.482919 -0.05497,-0.24568 0.01972,-1.160307 0.07612,-1.438435 0.05497,-0.278106 0.800679,-1.155987 1.026484,-1.269736 0.226016,-0.113861 1.385067,-0.303691 1.439404,-0.303713 0.05497,-2.9e-5 1.036845,0.37068 1.392255,0.838682 0.626252,0.825158 0.926902,1.800654 1.909411,3.525649 0.337017,0.591563 0.80237,1.570974 1.010414,1.92363 1.368577,2.319127 0.809138,4.726111 0.899207,6.811146 0.05285,1.229996 0.03594,2.768166 0.03383,4.111604 -7.41e-4,1.372008 -0.01668,1.403669 -0.05709,4.549014 -0.005,0.391472 -0.213543,1.966113 -0.353931,2.1615 -0.139542,0.19532 -0.664308,1.105064 -1.573238,1.996019 -0.908931,0.890955 -1.832027,1.14127 -3.031059,1.075586 -1.199221,-0.06571 -2.799988,-0.789852 -3.652953,-1.758147 -0.852901,-0.968318 -1.224381,-3.432158 -1.224381,-3.432158 z; m 26.077821,47.274969 -0.01851,-0.827727 -0.01954,-0.873737 -0.0296,-2.528439 -0.01017,-2.135443 5.07e-4,-2.213211 c 0.01981,-2.157674 0.720125,-2.13182 0.809136,-2.337311 0.112057,-0.259361 0.936838,-0.60279 1.46118,-0.623785 0.378669,-0.01517 1.084205,0.364784 1.084205,0.364784 l 0.0444,7.498466 0.074,0.150765 c 0.124743,0.252476 0.39833,0.360802 0.669593,0.283034 0.212062,-0.06076 0.433217,-0.264334 0.489034,-0.485149 0.0296,-0.120612 0.03594,-1.288795 0.01891,-3.989547 l -0.105715,-6.437076 -0.583965,-1.125789 c -1.059679,-2.042531 -1.754009,-3.376143 -1.778324,-3.482919 -0.05497,-0.24568 0.01972,-1.160307 0.07611,-1.438435 0.05497,-0.278106 0.800678,-1.155987 1.026483,-1.269736 0.226017,-0.113861 1.385067,-0.303691 1.439404,-0.303713 0.05497,-2.9e-5 1.036845,0.37068 1.392255,0.838682 0.626251,0.825158 0.926902,1.800654 1.90941,3.525649 0.337017,0.591563 0.80237,1.570974 1.010415,1.92363 1.368576,2.319127 0.809137,4.726111 0.899205,6.811146 0.05285,1.229996 0.03594,2.768166 0.03383,4.111604 -7.41e-4,1.372008 -0.01669,1.403669 -0.05709,4.549014 -0.0049,0.391472 -0.213543,1.966113 -0.35393,2.1615 -0.139543,0.19532 -0.664308,1.105064 -1.573238,1.996019 -0.908931,0.890955 -1.832028,1.14127 -3.031059,1.075586 -1.19922,-0.06571 -2.799986,-0.789852 -3.652952,-1.758147 -0.852901,-0.968318 -1.22438,-3.432158 -1.22438,-3.432158 z"/></path><path d="m27.922 47.275.038-1.701.03-2.529.01-2.135v-2.214c-.02-2.157-.72-2.131-.81-2.337-.112-.26-.937-.603-1.46-.624-.38-.015-1.085.365-1.085.365l-.045 7.5-.074.15a.555.555 0 0 1-.67.283c-.211-.06-.432-.264-.488-.485-.03-.12-.036-1.289-.019-3.99l.106-6.436.584-1.126c1.06-2.043 1.754-3.376 1.778-3.483.055-.246-.02-1.16-.076-1.439-.055-.278-.8-1.156-1.027-1.27-.226-.113-1.385-.303-1.439-.303-.055 0-1.037.37-1.392.839-.627.825-.927 1.8-1.91 3.525-.337.592-.802 1.571-1.01 1.924-1.369 2.32-.81 4.726-.9 6.811-.052 1.23-.035 2.768-.033 4.112 0 1.372.017 1.403.057 4.549.005.391.213 1.966.354 2.161.14.196.664 1.105 1.573 1.996.909.891 1.832 1.142 3.031 1.076 1.2-.066 2.8-.79 3.653-1.758.853-.969 1.224-3.368 1.224-3.368z" style="display:inline;fill:url(#d);stroke:#000;stroke-width:3;stroke-dasharray:none;paint-order:stroke fill markers"><animate attributeName="d" dur="0.4s" repeatCount="indefinite" values="m 27.9221,47.274969 0.03805,-1.701464 0.0296,-2.528439 0.01017,-2.135443 -5.07e-4,-2.213211 c -0.01981,-2.157674 -0.720125,-2.13182 -0.809136,-2.337311 -0.112058,-0.259361 -0.936839,-0.60279 -1.461181,-0.623785 -0.378668,-0.01517 -1.084203,0.364784 -1.084203,0.364784 l -0.0444,7.498466 -0.074,0.150765 c -0.124742,0.252476 -0.39833,0.360802 -0.669592,0.283034 -0.212063,-0.06076 -0.433218,-0.264334 -0.489034,-0.485149 -0.0296,-0.120612 -0.03594,-1.288795 -0.01891,-3.989547 l 0.105714,-6.437076 0.583966,-1.125789 c 1.059678,-2.042531 1.754008,-3.376143 1.778323,-3.482919 0.05497,-0.24568 -0.01972,-1.160307 -0.07611,-1.438435 -0.05497,-0.278106 -0.800678,-1.155987 -1.026484,-1.269736 -0.226017,-0.113861 -1.385066,-0.303691 -1.439404,-0.303713 -0.05497,-2.9e-5 -1.036845,0.37068 -1.392255,0.838682 -0.626251,0.825158 -0.926901,1.800654 -1.909408,3.525649 -0.337017,0.591563 -0.802371,1.570974 -1.010416,1.92363 -1.368576,2.319127 -0.809137,4.726111 -0.899205,6.811146 -0.05285,1.229996 -0.03594,2.768166 -0.03383,4.111604 7.4e-4,1.372008 0.01669,1.403669 0.05709,4.549014 0.0049,0.391472 0.213542,1.966113 0.35393,2.1615 0.139543,0.19532 0.664308,1.105064 1.573238,1.996019 0.90893,0.890955 1.832026,1.14127 3.031057,1.075586 1.199221,-0.06571 2.799987,-0.789852 3.652951,-1.758147 0.852901,-0.968318 1.22362,-3.368046 1.22362,-3.368046 z; m 11.435878,47.274969 0.0381,-1.701464 0.02964,-2.528439 0.01018,-2.135443 -4.72e-4,-2.213211 C 11.493496,36.538738 10.792205,36.564592 10.70307,36.359101 10.59082,36.09974 9.7648975,35.756311 9.2398297,35.735316 8.8606377,35.720146 8.1541257,36.1001 8.1541257,36.1001 l -0.044461,7.498466 -0.074107,0.150765 C 7.9106496,44.001807 7.6366833,44.110133 7.3650454,44.032365 7.1526895,43.971605 6.9312289,43.768031 6.8753346,43.547216 6.8456974,43.426604 6.8393432,42.258421 6.8564059,39.557669 L 6.9622661,33.120593 7.5470398,31.994804 C 8.6081843,29.952273 9.3034755,28.618661 9.3278235,28.511885 9.3828682,28.266205 9.3080722,27.351578 9.2516016,27.07345 9.1965571,26.795344 8.4498154,25.917463 8.2236973,25.803714 7.9973678,25.689853 6.8367144,25.500023 6.7823014,25.500001 c -0.055045,-2.9e-5 -1.0382788,0.37068 -1.3941812,0.838682 -0.6271174,0.825158 -0.9281839,1.800654 -1.9120507,3.525649 -0.3374837,0.591563 -0.803481,1.570974 -1.0118138,1.92363 -1.3704696,2.319127 -0.8102564,4.726111 -0.9004492,6.811146 -0.05293,1.229996 -0.035992,2.768166 -0.033877,4.111604 7.419e-4,1.372008 0.016708,1.403669 0.057169,4.549014 0.00488,0.391472 0.2138383,1.966113 0.3544201,2.1615 0.1397358,0.19532 0.6652276,1.105064 1.5754147,1.996019 0.9101883,0.890955 1.8345616,1.14127 3.0352514,1.075586 1.2008803,-0.06571 2.8038619,-0.789852 3.6580073,-1.758147 0.854082,-0.968318 1.225313,-3.368046 1.225313,-3.368046 z; m 27.9221,47.274969 0.03805,-1.701464 0.0296,-2.528439 0.01017,-2.135443 -5.07e-4,-2.213211 c -0.01981,-2.157674 -0.720125,-2.13182 -0.809136,-2.337311 -0.112058,-0.259361 -0.936839,-0.60279 -1.461181,-0.623785 -0.378668,-0.01517 -1.084203,0.364784 -1.084203,0.364784 l -0.0444,7.498466 -0.074,0.150765 c -0.124742,0.252476 -0.39833,0.360802 -0.669592,0.283034 -0.212063,-0.06076 -0.433218,-0.264334 -0.489034,-0.485149 -0.0296,-0.120612 -0.03594,-1.288795 -0.01891,-3.989547 l 0.105714,-6.437076 0.583966,-1.125789 c 1.059678,-2.042531 1.754008,-3.376143 1.778323,-3.482919 0.05497,-0.24568 -0.01972,-1.160307 -0.07611,-1.438435 -0.05497,-0.278106 -0.800678,-1.155987 -1.026484,-1.269736 -0.226017,-0.113861 -1.385066,-0.303691 -1.439404,-0.303713 -0.05497,-2.9e-5 -1.036845,0.37068 -1.392255,0.838682 -0.626251,0.825158 -0.926901,1.800654 -1.909408,3.525649 -0.337017,0.591563 -0.802371,1.570974 -1.010416,1.92363 -1.368576,2.319127 -0.809137,4.726111 -0.899205,6.811146 -0.05285,1.229996 -0.03594,2.768166 -0.03383,4.111604 7.4e-4,1.372008 0.01669,1.403669 0.05709,4.549014 0.0049,0.391472 0.213542,1.966113 0.35393,2.1615 0.139543,0.19532 0.664308,1.105064 1.573238,1.996019 0.90893,0.890955 1.832026,1.14127 3.031057,1.075586 1.199221,-0.06571 2.799987,-0.789852 3.652951,-1.758147 0.852901,-0.968318 1.22362,-3.368046 1.22362,-3.368046 z"/></path></svg>