<svg xmlns="http://www.w3.org/2000/svg" xmlns:xlink="http://www.w3.org/1999/xlink" width="57" height="57" data-name="Layer 1"><defs><linearGradient id="b" x1="18.78" x2="49.237" y1="6.999" y2="41.833" gradientUnits="userSpaceOnUse"><stop offset="0" stop-color="#ffff2e" style="stop-color:#fff21c;stop-opacity:1"/><stop offset="1" stop-color="#ff913d" style="stop-color:#fea40c;stop-opacity:1"/></linearGradient><linearGradient xlink:href="#a" id="c" x1=".298" x2="17.61" y1="23.46" y2="53.659" gradientUnits="userSpaceOnUse"/><linearGradient id="a"><stop offset="0" style="stop-color:#fcea2b;stop-opacity:1"/><stop offset="1" style="stop-color:#ff913d;stop-opacity:1"/></linearGradient></defs><path d="M55.95 22.348c0 13.507-9.597 27.602-21.44 27.602-11.842 0-21.46-14.063-21.46-27.602C13.05 8.81 22.668 1.05 34.51 1.05c11.843 0 21.44 7.803 21.44 21.298Z" style="display:inline;fill:url(#b);stroke:#000;stroke-width:2.1;stroke-dasharray:none;stroke-opacity:1"/><path d="M42.138 35.802c-5.091-1.959-11.058-1.836-16.278.332-.72.315-2.06-1.868-1.183-2.244 6.023-2.502 12.91-2.644 18.785-.385.856.341-.62 2.578-1.32 2.298" style="display:inline;fill:#000;fill-opacity:1;stroke-width:1.57059"/><path d="M43.501 25.25a6.708 6.709 0 0 1-4.773-1.976A6.7 6.701 0 0 1 36.75 18.5a6.756 6.758 0 0 1 6.75-6.75 6.76 6.76 0 0 1 6.75 6.752 6.705 6.706 0 0 1-1.976 4.773A6.704 6.705 0 0 1 43.5 25.25" style="display:inline;fill:#fff;fill-opacity:1;fill-rule:nonzero;stroke:#000;stroke-width:1.50001;stroke-dasharray:none;stroke-opacity:1"/><path d="M46 21.5a2.5 2.5 0 1 0-5 0 2.5 2.5 0 0 0 5 0" style="display:inline;fill:#000;fill-opacity:1;fill-rule:nonzero;stroke:none;stroke-width:0;stroke-dasharray:none"/><path d="M25.501 25.25a6.708 6.709 0 0 1-4.773-1.976A6.7 6.701 0 0 1 18.75 18.5a6.756 6.758 0 0 1 6.75-6.75 6.76 6.76 0 0 1 6.75 6.752 6.705 6.706 0 0 1-1.976 4.773A6.704 6.705 0 0 1 25.5 25.25" style="display:inline;fill:#fff;fill-opacity:1;fill-rule:nonzero;stroke:#000;stroke-width:1.50002;stroke-dasharray:none;stroke-opacity:1"/><path d="M28 21.5a2.5 2.5 0 1 0-5 0 2.5 2.5 0 0 0 5 0" style="display:inline;fill:#000;fill-opacity:1;fill-rule:nonzero;stroke:none;stroke-width:0;stroke-dasharray:none"/><path d="M4.31 33.228c-1.553.208-2.55-1.088-2.57-2.514-.022-1.425 1.011-2.482 2.57-2.312 5.714-.062-.154-.007 5.56.02l-4.694-.067c-1.553.207-2.426-.75-2.447-2.174-.02-1.425 1.41-2.54 2.968-2.372l3.373-.059 1.148.036c6.107.283 7.298 6.736 6.985 12.28-.195 3.198-1.544 4.663-2.993 5.978-1.449 1.314-3.399.51-4.216.66.27 2.916.623 7.19-1.213 9.063-1.835 1.872-3.11 2.083-5.063-.01-2.067-2.457-.14-9.213-.14-9.213h2.245l4.25.125-5.69-.092-.073-.033c-1.552.207-3.539-.992-3.56-2.417-.02-1.424 2.002-2.48 3.56-2.313 4.322.057 1.24.04 5.56-.069l-6.152.006c-1.552.207-2.947-.99-2.968-2.414-.02-1.425 2.06-2.278 3.617-2.11l5.503-.105" style="display:inline;fill:url(#c);stroke:#000;stroke-width:1.49999;stroke-dasharray:none;stroke-opacity:1"/></svg>