<svg xmlns="http://www.w3.org/2000/svg" width="57" height="57" data-name="Layer 1"><defs><linearGradient id="b" x1=".893" x2="17.629" y1="22.597" y2="52.681" gradientUnits="userSpaceOnUse"><stop offset="0" stop-color="#fff21c" style="stop-color:#fff21c;stop-opacity:1"/><stop offset="1" stop-color="#fea40c" style="stop-color:#fea40c;stop-opacity:1"/></linearGradient><linearGradient id="a" x1="18.443" x2="48.979" y1="7.593" y2="42.178" gradientUnits="userSpaceOnUse"><stop offset="0" stop-color="#fff21c" style="stop-color:#fff21c;stop-opacity:1"/><stop offset="1" stop-color="#fea40c" style="stop-color:#fea40c;stop-opacity:1"/></linearGradient></defs><path d="M55.95 22.348c0 13.507-9.597 27.602-21.44 27.602-11.842 0-21.46-14.063-21.46-27.602C13.05 8.81 22.668 1.05 34.51 1.05c11.843 0 21.44 7.803 21.44 21.298Z" style="display:inline;fill:url(#a);stroke:#000;stroke-width:2.1;stroke-dasharray:none;stroke-opacity:1"/><path d="M47 33c0 4.616-4.152 10-12.5 10C26.148 43 22 37.616 22 33h25" style="fill:#000;stroke:none;stroke-width:0;stroke-dasharray:none;stroke-opacity:1"/><path d="M44.16 35.222c0 2.564-3.21 5.556-9.66 5.556-6.453 0-9.66-2.992-9.66-5.556h19.32" style="fill:#fff;stroke:none;stroke-width:0;stroke-dasharray:none;stroke-opacity:1"/><path d="M30.336 11.996c-3.285.046-6.147 1.809-7.808 4.808-.223.424-1.77-.742-1.496-1.255 1.916-3.46 5.22-5.495 9.01-5.549.558 0 .753 1.996.295 1.996" style="display:inline;fill:#000;fill-opacity:1;stroke-width:1.0443"/><path d="M46.078 16.804c-1.648-3.021-4.525-4.727-7.849-4.653-.463.021-.245-2.04.317-2.06 3.835-.085 7.157 1.881 9.06 5.368.271.516-1.303 1.77-1.527 1.346" style="display:inline;fill:#000;fill-opacity:1;stroke-width:1.06955"/><path d="M30.056 20.391a2.5 2.5 0 1 0-5 0 2.5 2.5 0 0 0 5 0M44.056 20.391a2.5 2.5 0 1 0-5 0 2.5 2.5 0 0 0 5 0" style="display:inline;fill:#000;fill-opacity:1;fill-rule:nonzero;stroke:none;stroke-width:0;stroke-dasharray:none"/><path d="M13.69 42.772c1.553-.208 2.55 1.088 2.57 2.514.022 1.425-1.011 2.482-2.57 2.312-5.714.062.154.007-5.56-.02l4.694.067c1.553-.207 2.426.75 2.447 2.174.02 1.425-1.41 2.54-2.968 2.372l-3.373.059-1.148-.036C1.675 51.93.484 45.478.797 39.934c.195-3.198 1.544-4.663 2.993-5.978 1.449-1.314 3.399-.51 4.216-.66-.27-2.916-.623-7.19 1.213-9.063 1.835-1.872 3.11-2.083 5.063.01 2.067 2.457.14 9.213.14 9.213h-2.245l-4.25-.125 5.69.092.073.033c1.552-.207 3.539.992 3.56 2.417.02 1.424-2.002 2.48-3.56 2.313-4.322-.057-1.24-.04-5.56.069l6.152-.006c1.552-.207 2.947.99 2.968 2.414.02 1.425-2.06 2.278-3.617 2.11l-5.503.105" style="display:inline;fill:url(#b);stroke:#000;stroke-width:1.49999;stroke-dasharray:none;stroke-opacity:1"/></svg>