<svg xmlns="http://www.w3.org/2000/svg" xmlns:xlink="http://www.w3.org/1999/xlink" width="54" height="57" data-name="Layer 1"><defs><linearGradient id="a"><stop offset="0" style="stop-color:#fff21c;stop-opacity:1"/><stop offset="1" style="stop-color:#fea40c;stop-opacity:1"/></linearGradient><linearGradient id="b" x1="11.406" x2="41.363" y1="6.848" y2="42.096" gradientUnits="userSpaceOnUse"><stop offset="0" stop-color="#ffff2e" style="stop-color:#fff21c;stop-opacity:1"/><stop offset="1" stop-color="#ff913d" style="stop-color:#fea40c;stop-opacity:1"/></linearGradient><linearGradient xlink:href="#a" id="d" x1="18.223" x2="27.625" y1="24.411" y2="53.797" gradientUnits="userSpaceOnUse"/><linearGradient xlink:href="#a" id="c" x1="26.441" x2="35.679" y1="24.257" y2="53.791" gradientUnits="userSpaceOnUse"/></defs><path d="M48.45 22.348c0 13.507-9.597 27.602-21.44 27.602-11.842 0-21.46-14.063-21.46-27.602C5.55 8.81 15.168 1.05 27.01 1.05c11.843 0 21.44 7.803 21.44 21.298Z" style="display:inline;fill:url(#b);stroke:#000;stroke-width:2.1;stroke-dasharray:none;stroke-opacity:1"/><path d="M39.5 33c0 4.616-4.152 10-12.5 10-8.352 0-12.5-5.384-12.5-10h25" style="fill:#000;stroke:none;stroke-width:0;stroke-dasharray:none;stroke-opacity:1"/><path d="M36.66 35.222c0 2.564-3.21 5.556-9.66 5.556-6.453 0-9.66-2.992-9.66-5.556h19.32" style="fill:#fff;stroke:none;stroke-width:0;stroke-dasharray:none;stroke-opacity:1"/><path d="M22.836 11.996c-3.285.046-6.147 1.809-7.808 4.808-.223.424-1.77-.742-1.496-1.255 1.916-3.46 5.22-5.495 9.01-5.549.558 0 .753 1.996.295 1.996" style="display:inline;fill:#000;fill-opacity:1;stroke-width:1.0443"/><path d="M38.578 16.804c-1.648-3.021-4.525-4.727-7.849-4.653-.463.021-.245-2.04.317-2.06 3.835-.085 7.157 1.881 9.06 5.368.271.516-1.303 1.77-1.527 1.346" style="display:inline;fill:#000;fill-opacity:1;stroke-width:1.06955"/><path d="M22.556 20.391a2.5 2.5 0 1 0-5 0 2.5 2.5 0 0 0 5 0M36.556 20.391a2.5 2.5 0 1 0-5 0 2.5 2.5 0 0 0 5 0" style="display:inline;fill:#000;fill-opacity:1;fill-rule:nonzero;stroke:none;stroke-width:0;stroke-dasharray:none"/><path d="M27.886 29.553c.459-2.081-.761-2.342.374-4.254 1.22-2.06 4.1 1.973 5.694 6.782 1.877 5.653 2.151 18.8-2.181 20.871-2.145 1.024-7.757-.041-3.394-12.503.722-2.061-1.46-6.522-.494-10.897" style="fill:url(#c);stroke:#000;stroke-width:1.5;stroke-dasharray:none;stroke-opacity:1"><animate attributeName="d" dur="0.5s" repeatCount="indefinite" values="m 27.886005,29.552686 c 0.458868,-2.080637 -0.761016,-2.341698 0.374154,-4.253528 1.219886,-2.061009 4.099465,1.972678 5.69421,6.781698 1.877126,5.653051 2.151036,18.799339 -2.181392,20.871143 -2.144683,1.023634 -7.757001,-0.04122 -3.394217,-12.50345 0.722188,-2.061008 -1.459203,-6.521618 -0.493462,-10.896844;	m 45.885974,29.552686 c 0.458868,-2.080637 -0.761016,-2.341698 0.374154,-4.253528 1.219886,-2.061009 4.099465,1.972678 5.69421,6.781698 1.877126,5.653051 2.151036,18.799339 -2.181392,20.871143 -2.144683,1.023634 -7.757001,-0.04122 -3.394217,-12.50345 0.722188,-2.061008 -1.459203,-6.521618 -0.493462,-10.896844; m 27.886005,29.552686 c 0.458868,-2.080637 -0.761016,-2.341698 0.374154,-4.253528 1.219886,-2.061009 4.099465,1.972678 5.69421,6.781698 1.877126,5.653051 2.151036,18.799339 -2.181392,20.871143 -2.144683,1.023634 -7.757001,-0.04122 -3.394217,-12.50345 0.722188,-2.061008 -1.459203,-6.521618 -0.493462,-10.896844"/></path><path d="M26.124 29.553c-.46-2.08.762-2.342-.375-4.254-1.221-2.06-4.105 1.973-5.702 6.782-1.88 5.654-2.154 18.8 2.185 20.873 2.147 1.023 7.767-.042 3.398-12.505-.723-2.06 1.461-6.522.494-10.897" style="fill:url(#d);stroke:#000;stroke-width:1.5;stroke-dasharray:none;stroke-opacity:1"><animate attributeName="d" dur="0.5s" repeatCount="indefinite" values="m 26.123735,29.55298 c -0.459474,-2.080757 0.762019,-2.341833 -0.374648,-4.253773 -1.221494,-2.061128 -4.10487,1.972792 -5.701718,6.782089 -1.879602,5.653377 -2.153873,18.800423 2.184268,20.872347 2.147511,1.023692 7.76723,-0.04122 3.398693,-12.504171 -0.723141,-2.061127 1.461127,-6.521995 0.494112,-10.897473; M 8.123735,29.55298 C 7.664261,27.472223 8.885754,27.211147 7.749087,25.299207 6.527593,23.238079 3.644217,27.271999 2.047369,32.081296 0.167767,37.734673 -0.106504,50.881719 4.231637,52.953643 6.379148,53.977335 11.998867,52.912423 7.63033,40.449472 6.907189,38.388345 9.091457,33.927477 8.124442,29.551999; m 26.123735,29.55298 c -0.459474,-2.080757 0.762019,-2.341833 -0.374648,-4.253773 -1.221494,-2.061128 -4.10487,1.972792 -5.701718,6.782089 -1.879602,5.653377 -2.153873,18.800423 2.184268,20.872347 2.147511,1.023692 7.76723,-0.04122 3.398693,-12.504171 -0.723141,-2.061127 1.461127,-6.521995 0.494112,-10.897473"/></path></svg>