<svg xmlns="http://www.w3.org/2000/svg" width="45" height="57" data-name="Layer 1"><defs><linearGradient id="a" x1="6.605" x2="36.975" y1="7.344" y2="42.178" gradientUnits="userSpaceOnUse"><stop offset="0" stop-color="#ffff2e" style="stop-color:#fff21c;stop-opacity:1"/><stop offset="1" stop-color="#ff913d" style="stop-color:#fea40c;stop-opacity:1"/></linearGradient></defs><path d="M43.95 22.348c0 13.507-9.597 27.602-21.44 27.602-11.842 0-21.46-14.063-21.46-27.602C1.05 8.81 10.668 1.05 22.51 1.05c11.843 0 21.44 7.803 21.44 21.298Z" style="display:inline;fill:url(#a);stroke:#000;stroke-width:2.1;stroke-dasharray:none;stroke-opacity:1"/><circle cx="14" cy="20" r="7.25" class="cls-2" style="fill:#fff;stroke:#000;stroke-width:1.5;stroke-dasharray:none;stroke-opacity:1"/><path d="M21 22.001a2.5 2.5 0 1 1-2.5-2.501 2.5 2.5 0 0 1 2.5 2.501Z" style="stroke-width:.999996"><animateTransform attributeName="transform" dur="0.5s" repeatCount="indefinite" type="rotate" values="360 14 20;0 14 20"/></path><path d="M37.25 20A7.25 7.25 0 0 1 30 27.25 7.25 7.25 0 0 1 22.75 20 7.25 7.25 0 0 1 30 12.75 7.25 7.25 0 0 1 37.25 20Z" class="cls-2" style="fill:#fff;stroke:#000;stroke-width:1.5"/><path d="M28 22.001a2.5 2.5 0 1 1-2.5-2.501 2.5 2.5 0 0 1 2.5 2.501Z" style="stroke-width:.999996"><animateTransform attributeName="transform" dur="0.5s" repeatCount="indefinite" type="rotate" values="0 30 20;360 30 20"/></path><path d="M26.519 36.925a9.814 10.63 0 0 1-4.634-1.901c-2.248-1.446-3.581-1.901-4.591-1.523-1.01.383-1.668 1.447-2.45 3.33l-1.21-.551c.877-2.321 1.94-3.624 3.248-4.09 1.649-.589 3.467.239 5.67 1.655 1.614 1.036 3.432 2.025 4.74 1.512a3.511 3.803 0 0 0 1.843-2.577l1.247.466c-.598 1.902-1.457 2.985-2.634 3.45a3.651 3.955 0 0 1-1.229.23z" style="display:inline;stroke:#000;stroke-width:.999995;stroke-dasharray:none;stroke-opacity:1"/></svg>