<svg xmlns="http://www.w3.org/2000/svg" xmlns:xlink="http://www.w3.org/1999/xlink" width="57" height="57" data-name="Layer 1"><defs><linearGradient xlink:href="#a" id="c" x1="3.226" x2="32.582" y1="20.216" y2="52.558" gradientUnits="userSpaceOnUse"/><linearGradient id="a"><stop offset="0" style="stop-color:#ff0;stop-opacity:1"/><stop offset="1" style="stop-color:#ff913d;stop-opacity:1"/></linearGradient><linearGradient id="b" x1="6.605" x2="36.975" y1="7.344" y2="42.178" gradientUnits="userSpaceOnUse"><stop offset="0" stop-color="#ffff2e" style="stop-color:#fff21c;stop-opacity:1"/><stop offset="1" stop-color="#ff913d" style="stop-color:#fea40c;stop-opacity:1"/></linearGradient></defs><path d="M55.95 22.348c0 13.507-9.597 27.602-21.44 27.602-11.842 0-21.46-14.063-21.46-27.602C13.05 8.81 22.668 1.05 34.51 1.05c11.843 0 21.44 7.803 21.44 21.298Z" style="display:inline;fill:url(#b);stroke:#000;stroke-width:2.1;stroke-dasharray:none;stroke-opacity:1"/><path d="M47 33c0 4.616-4.152 10-12.5 10C26.148 43 22 37.616 22 33h25" style="fill:#000;stroke:none;stroke-width:0;stroke-dasharray:none;stroke-opacity:1"/><path d="M44.16 35.222c0 2.564-3.21 5.556-9.66 5.556-6.453 0-9.66-2.992-9.66-5.556h19.32" style="fill:#fff;stroke:none;stroke-width:0;stroke-dasharray:none;stroke-opacity:1"/><path d="M30.336 11.996c-3.285.046-6.147 1.809-7.808 4.808-.223.424-1.77-.742-1.496-1.255 1.916-3.46 5.22-5.495 9.01-5.549.558 0 .753 1.996.295 1.996" style="display:inline;fill:#000;fill-opacity:1;stroke-width:1.0443"/><path d="M46.078 16.804c-1.648-3.021-4.525-4.727-7.849-4.653-.463.021-.245-2.04.317-2.06 3.835-.085 7.157 1.881 9.06 5.368.271.516-1.303 1.77-1.527 1.346" style="display:inline;fill:#000;fill-opacity:1;stroke-width:1.06955"/><path d="M30.056 20.391a2.5 2.5 0 1 0-5 0 2.5 2.5 0 0 0 5 0" style="display:inline;fill:#000;fill-opacity:1;fill-rule:nonzero;stroke:none;stroke-width:0;stroke-dasharray:none"/><path d="M32.209 37.63c-.632-1.745-2.414-1.17-4.523.234-.854.568-1.564.93-3.592 1.358-.89 0-1.085-.976-.913-1.93l2.034-11.684c.579-2.968-2.963-4.058-3.67-1.003l-1.77 10.175c-.891 2.535-1.22 0-1.22 0l-.49-10.96c0-3.967-3.787-4.217-3.787 0l.448 10.009c.199 3.954-.732 1.726-.732 1.413l-1.782-8.91c-.86-3.753-4.266-2.788-3.653.634l1.655 7.943c.274 1.838-1.13.967-1.375.524l-1.617-3.84c-1.348-2.924-4.24-1.755-3.3 1.14l2.714 7.12c.246.83.51 1.66.586 2.369 0 1.994 1.25 6.085 2.29 7.154a9.352 9.352 0 0 0 13.497 0c2.497-2.886 9.65-10.514 9.2-11.75" style="display:inline;fill:url(#c);stroke:#000;stroke-width:1.5;stroke-dasharray:none;stroke-opacity:1"><animateTransform attributeName="transform" dur="0.5s" repeatCount="indefinite" type="rotate" values="-15 18 45;25 18 40;-15 18 45"/></path><path d="M44.056 20.391a2.5 2.5 0 1 0-5 0 2.5 2.5 0 0 0 5 0" style="display:inline;fill:#000;fill-opacity:1;fill-rule:nonzero;stroke:none;stroke-width:0;stroke-dasharray:none"/></svg>