<svg xmlns="http://www.w3.org/2000/svg" xmlns:xlink="http://www.w3.org/1999/xlink" width="45" height="57" data-name="Layer 1"><defs><radialGradient xlink:href="#a" id="c" cx="19.552" cy="30.229" r="3.178" fx="19.552" fy="30.229" gradientTransform="matrix(2.13957 -2.32099 2.47233 2.27908 -81.817 6.078)" gradientUnits="userSpaceOnUse"/><radialGradient xlink:href="#a" id="d" cx="14.399" cy="25.171" r="3.178" fx="14.399" fy="25.171" gradientTransform="matrix(2.13957 -2.32099 2.47233 2.27908 -81.817 6.078)" gradientUnits="userSpaceOnUse"/><linearGradient id="b" x1="6.522" x2="37.497" y1="7.116" y2="41.919" gradientUnits="userSpaceOnUse"><stop offset="0" style="stop-color:#5fb330;stop-opacity:1"/><stop offset="1" style="stop-color:#85b421;stop-opacity:1"/></linearGradient><linearGradient id="a"><stop offset="0" style="stop-color:#fea40c;stop-opacity:1"/><stop offset="1" style="stop-color:#5fb330;stop-opacity:0"/></linearGradient></defs><path d="M43.95 22.348c0 13.507-9.597 27.602-21.44 27.602-11.842 0-21.46-14.063-21.46-27.602C1.05 8.81 10.668 1.05 22.51 1.05c11.843 0 21.44 7.803 21.44 21.298Z" style="display:inline;fill:url(#b);stroke:#000;stroke-width:2.1;stroke-dasharray:none;stroke-opacity:1"/><path d="M7.977 14.51c3.421.857 6.88-.167 9.437-2.793.35-.375 1.63 1.25 1.204 1.702-2.95 3.03-6.944 4.212-10.89 3.224-.58-.154-.227-2.26.248-2.134" style="display:inline;fill:#000;fill-opacity:1;stroke-width:1.0443"/><path d="M27.048 11.715c2.55 2.652 6.009 3.614 9.437 2.622.474-.15.821 2.03.244 2.205-3.955 1.144-7.948.038-10.892-3.023-.425-.456.86-2.18 1.21-1.805" style="display:inline;fill:#000;fill-opacity:1;stroke-width:1.06955"/><ellipse cx="34.056" cy="30.228" rx="8.056" ry="7.984" style="fill:url(#c);fill-opacity:1;stroke:#000;stroke-width:0;stroke-dasharray:none;stroke-opacity:1;paint-order:stroke fill markers"/><ellipse cx="11.056" cy="30.353" rx="8.056" ry="7.984" style="fill:url(#d);fill-opacity:1;stroke:#000;stroke-width:0;stroke-dasharray:none;stroke-opacity:1;paint-order:stroke fill markers"/><path d="M17 20.502a2.5 2.5 0 1 0-5 0 2.5 2.5 0 0 0 5 0M32 20.502a2.5 2.5 0 1 0-5 0 2.5 2.5 0 0 0 5 0" style="display:inline;fill:#000;fill-opacity:1;fill-rule:nonzero;stroke:none;stroke-width:0;stroke-dasharray:none"/><path d="M27.033 37h-9.066c-.623 0-.623-3 0-3h9.066c.623 0 .623 3 0 3" style="display:inline;fill:#000;fill-opacity:1;stroke:none;stroke-width:0;stroke-dasharray:none;stroke-opacity:1"/></svg>