<svg xmlns="http://www.w3.org/2000/svg" xmlns:xlink="http://www.w3.org/1999/xlink" width="57" height="57" data-name="Layer 1"><defs><linearGradient id="c" x1="18.78" x2="49.237" y1="6.999" y2="41.833" gradientUnits="userSpaceOnUse"><stop offset="0" stop-color="#ffff2e" style="stop-color:#fff21c;stop-opacity:1"/><stop offset="1" stop-color="#ff913d" style="stop-color:#fea40c;stop-opacity:1"/></linearGradient><linearGradient id="a"><stop offset="0" style="stop-color:#fcea2b;stop-opacity:1"/><stop offset="1" style="stop-color:#ff913d;stop-opacity:1"/></linearGradient><linearGradient xlink:href="#b" id="d" x1=".213" x2="17.556" y1="22.348" y2="53.73" gradientTransform="rotate(180 9 38)" gradientUnits="userSpaceOnUse"/><linearGradient id="b"><stop offset="0" style="stop-color:#fff21c;stop-opacity:1"/><stop offset="1" style="stop-color:#fea40c;stop-opacity:1"/></linearGradient><linearGradient xlink:href="#b" id="e" x1=".213" x2="17.556" y1="22.348" y2="53.73" gradientTransform="rotate(180 9 38)" gradientUnits="userSpaceOnUse"/><linearGradient xlink:href="#b" id="f" x1=".213" x2="17.556" y1="22.348" y2="53.73" gradientTransform="rotate(180 9 38)" gradientUnits="userSpaceOnUse"/></defs><path d="M55.95 22.348c0 13.507-9.597 27.602-21.44 27.602-11.842 0-21.46-14.063-21.46-27.602C13.05 8.81 22.668 1.05 34.51 1.05c11.843 0 21.44 7.803 21.44 21.298Z" style="display:inline;fill:url(#c);stroke:#000;stroke-width:2.1;stroke-dasharray:none;stroke-opacity:1"/><path d="M42.138 35.802c-5.091-1.959-11.058-1.836-16.278.332-.72.315-2.06-1.868-1.183-2.244 6.023-2.502 12.91-2.644 18.785-.385.856.341-.62 2.578-1.32 2.298" style="display:inline;fill:#000;fill-opacity:1;stroke-width:1.57059"/><path d="M43.501 25.25a6.708 6.709 0 0 1-4.773-1.976A6.7 6.701 0 0 1 36.75 18.5a6.756 6.758 0 0 1 6.75-6.75 6.76 6.76 0 0 1 6.75 6.752 6.705 6.706 0 0 1-1.976 4.773A6.704 6.705 0 0 1 43.5 25.25" style="display:inline;fill:#fff;fill-opacity:1;fill-rule:nonzero;stroke:#000;stroke-width:1.50001;stroke-dasharray:none;stroke-opacity:1"/><path d="M46 21.5a2.5 2.5 0 1 0-5 0 2.5 2.5 0 0 0 5 0" style="display:inline;fill:#000;fill-opacity:1;fill-rule:nonzero;stroke:none;stroke-width:0;stroke-dasharray:none"/><path d="M25.501 25.25a6.708 6.709 0 0 1-4.773-1.976A6.7 6.701 0 0 1 18.75 18.5a6.756 6.758 0 0 1 6.75-6.75 6.76 6.76 0 0 1 6.75 6.752 6.705 6.706 0 0 1-1.976 4.773A6.704 6.705 0 0 1 25.5 25.25" style="display:inline;fill:#fff;fill-opacity:1;fill-rule:nonzero;stroke:#000;stroke-width:1.50002;stroke-dasharray:none;stroke-opacity:1"/><path d="M28 21.5a2.5 2.5 0 1 0-5 0 2.5 2.5 0 0 0 5 0" style="display:inline;fill:#000;fill-opacity:1;fill-rule:nonzero;stroke:none;stroke-width:0;stroke-dasharray:none"/><g style="fill:url(#d)" transform="rotate(180 9 38)"><path d="M10.996 34.35c-.123.444-.33.782-.682 1.116a2.575 2.575 0 0 1-2.589.572c-.79-.258-1.353-.804-1.623-1.574L6 34.17v-2.796c0-2.594.006-5.814.08-6.044a2.583 2.583 0 0 1 1.65-1.658c.417-.137 1.228-.138 1.613-.002.766.27 1.37.847 1.62 1.55.098.272.099 3.304.109 6.05.009 2.627.005 2.792-.076 3.08z" style="fill:url(#e);stroke:#000;stroke-width:3;paint-order:stroke fill markers"/><path d="M3.18 37.566c.654-1.187 1.726-1.821 3.301-1.964.636-.058 7.564-.34 8.676.393.894.59 1.336 1.812.981 2.892-.526 1.604-.835 1.575-2.597 1.649-.388.016-4.75.038-4.811.083-.28.205-.405.733-.114.931.114.078 5.176.1 5.49.1.22 0 .514.025.652.054.66.14 1.272.666 1.572 1.353.169.387.172.403.172 1.022 0 .62-.002.633-.174 1.022-.305.69-.874 1.193-1.519 1.343-.136.032-.681.057-1.212.058-.87 0-4.523.01-4.655.1-.193.131-.09.664-.017.916.08.269 3.592.117 3.954.159 1.089.124 1.845.891 2.023 2.052.184 1.202-.593 2.458-1.678 2.712-.322.076-6.1.08-6.776.005-2.363-.26-2.847-.714-3.525-1.973-1.985-3.686-1.76-9.242.257-12.906Z" style="fill:url(#f);stroke:#000;stroke-width:3.00001;paint-order:stroke fill markers"/></g></svg>