<svg xmlns="http://www.w3.org/2000/svg" xmlns:xlink="http://www.w3.org/1999/xlink" width="45" height="57" data-name="Layer 1"><defs><linearGradient id="b"><stop offset="0" style="stop-color:#fff21c;stop-opacity:1"/><stop offset="1" style="stop-color:#fea40c;stop-opacity:1"/></linearGradient><linearGradient id="c" x1="6.605" x2="36.975" y1="7.344" y2="42.178" gradientUnits="userSpaceOnUse"><stop offset="0" stop-color="#ffff2e" style="stop-color:#fff21c;stop-opacity:1"/><stop offset="1" stop-color="#ff913d" style="stop-color:#fea40c;stop-opacity:1"/></linearGradient><linearGradient id="a"><stop offset="0" style="stop-color:#ffff2e;stop-opacity:1"/><stop offset="1" style="stop-color:#ff913d;stop-opacity:1"/></linearGradient><linearGradient xlink:href="#b" id="d" x1="15.984" x2="28.009" y1="22.223" y2="55.75" gradientUnits="userSpaceOnUse"/></defs><path d="M43.95 22.348c0 13.507-9.597 27.602-21.44 27.602-11.842 0-21.46-14.063-21.46-27.602C1.05 8.81 10.668 1.05 22.51 1.05c11.843 0 21.44 7.803 21.44 21.298Z" style="display:inline;fill:url(#c);stroke:#000;stroke-width:2.1;stroke-dasharray:none;stroke-opacity:1"/><path d="M19.426 15.025c-3.977-1.713-7.708-.764-10.038 2.916-.369.4-1.75-1.36-1.299-1.844 2.655-3.948 7.032-4.98 11.584-3.366.617.171.261 2.435-.246 2.294" style="display:inline;fill:#000;fill-opacity:1;stroke-width:1.0443"/><path d="M17.5 20.501a2.5 2.5 0 1 0-5 0 2.5 2.5 0 0 0 5 0M32.5 20.501a2.5 2.5 0 1 0-5 0 2.5 2.5 0 0 0 5 0" style="display:inline;fill:#000;fill-opacity:1;fill-rule:nonzero;stroke:none;stroke-width:0;stroke-dasharray:none"/><path d="M28.347 36.5H15.653c-.87 0-.87-3 0-3h12.694c.87 0 .87 3 0 3" style="display:inline;fill:#000;fill-opacity:1;stroke:none;stroke-width:0;stroke-dasharray:none;stroke-opacity:1"/><path d="M25.574 15.025c3.977-1.713 7.708-.764 10.038 2.916.369.4 1.75-1.36 1.299-1.844-2.655-3.948-7.032-4.98-11.584-3.366-.617.171-.261 2.435.246 2.294" style="display:inline;fill:#000;fill-opacity:1;stroke-width:1.0443"/><g style="stroke-width:3.00662595;fill:url(#d);stroke-dasharray:none" transform="matrix(.96422 -.25813 .25836 .96337 -5.879 9.9)"><path d="M18.228 38.218a63.232 63.376 77.573 0 0-1.901.197c-.486.06-1.028.09-1.204.064l-.32-.044 3.458-5.946a755.145 756.865 77.573 0 1 3.707-6.333c.218-.338.302-.418.674-.629.499-.288.936-.357 1.455-.231.522.127.9.398 1.147.823.32.552.29 1.106-.1 1.853-.155.297-5.613 9.709-5.819 10.031-.067.108-.242.141-1.097.215z" style="display:inline;fill:url(#d);fill-opacity:1;stroke:#000;stroke-width:3.00662595;stroke-dasharray:none;stroke-opacity:1;paint-order:stroke fill markers"/><path d="M24.026 46.256c-.081.02-.16.017-.172-.008-.014-.023.31-1.195.717-2.6.408-1.406.76-2.725.783-2.93.114-1.003-.158-1.942-.76-2.626-.68-.772-.923-.888-2.932-1.394-.987-.25-1.77-.468-1.742-.485.03-.017.829-.081 1.776-.143 1.575-.101 1.766-.097 2.233.036.279.082.648.247.82.367.579.407.978 1.141 1.018 1.874.027.458-.06 3.272-.106 3.478a1.286 1.286 0 0 0-.014.376c.05.43-.063 2.71-.144 2.933a1.348 1.361 75.61 0 1-.258.406c-.189.191-.978.653-1.219.716z" style="display:inline;fill:url(#d);fill-opacity:1;stroke:#000;stroke-width:3.00662595;stroke-dasharray:none;stroke-opacity:1;paint-order:stroke fill markers"/><path d="M21.398 47.345c-.187.05-.409.093-.494.096-.139.004-.147-.005-.088-.103a276.7 276.7 0 0 0 2.164-3.73c.251-.472.448-1.316.415-1.78-.057-.816-.333-1.455-.888-2.047-.257-.276-.694-.554-2.583-1.64-1.251-.719-2.272-1.316-2.268-1.33.003-.012 1.21.282 2.678.653 3.145.798 3.152.801 3.635 1.63.277.481.306.562.335.995.026.422-.057.778-.798 3.389-.454 1.603-.897 3.03-.985 3.171-.184.3-.596.555-1.123.695z" style="display:inline;fill:url(#d);fill-opacity:1;stroke:#000;stroke-width:3.00662595;stroke-dasharray:none;stroke-opacity:1;paint-order:stroke fill markers"/><path d="M23.067 51.997a9.145 9.145 0 0 1-3.22.744c-2.415.12-4.713-.896-6.486-2.867-.589-.654-1.296-1.84-1.579-2.65-.716-2.033-.717-4.067-.01-6.21.212-.643.697-1.698.809-1.763.036-.021.225-.31.42-.644.42-.719.687-.973 1.394-1.332.642-.326 1.009-.35 1.593-.104.489.206 5.358 2.992 5.629 3.222.278.235.641.89.691 1.241.067.494-.017.947-.265 1.432a105.777 106.798 75.608 0 1-1.483 2.6c-1.018 1.749-1.287 2.164-1.489 2.306-.928.658-2.201-.056-2.288-1.284-.015-.225.057-.51.259-1.021.486-1.216.524-2.024.126-2.707-.218-.374-.243-.395-.979-.814-.414-.236-.816-.426-.89-.424-.381.013-.628.446-.44.771.063.107.333.307.717.531.338.198.647.414.688.481.192.333.117.934-.229 1.803-.284.714-.341.996-.308 1.516.022.398.063.525.318 1.009.419.794.811 1.139 1.51 1.332.822.226 1.7.06 2.282-.435.271-.228.292-.235.703-.23.851.015 1.815-.287 2.38-.741.3-.243.363-.266.943-.38.571-.111.677-.153 1.315-.521.59-.34.732-.447.943-.708.454-.567.51-.801.571-2.464l.057-1.534.285-.504c.686-1.208.905-1.497 1.357-1.784.354-.226.476-.272.794-.304.52-.048.932.047 1.32.305.73.486.94 1.36.53 2.209-.082.169-.964 1.713-1.962 3.429-1.883 3.244-2.196 3.707-3.067 4.521a10.643 10.668 77.573 0 1-2.94 1.972z" style="display:inline;fill:url(#d);fill-opacity:1;stroke:#000;stroke-width:3.00662595;stroke-dasharray:none;stroke-opacity:1;paint-order:stroke fill markers"/></g></svg>