<svg xmlns="http://www.w3.org/2000/svg" width="45" height="57" data-name="Layer 1"><defs><linearGradient id="a" x1="6.605" x2="36.975" y1="7.344" y2="42.178" gradientUnits="userSpaceOnUse"><stop offset="0" stop-color="#ffff2e" style="stop-color:#fff21c;stop-opacity:1"/><stop offset="1" stop-color="#ff913d" style="stop-color:#fea40c;stop-opacity:1"/></linearGradient></defs><path d="M43.95 22.348c0 13.507-9.597 27.602-21.44 27.602-11.842 0-21.46-14.063-21.46-27.602C1.05 8.81 10.668 1.05 22.51 1.05c11.843 0 21.44 7.803 21.44 21.298Z" style="display:inline;fill:url(#a);stroke:#000;stroke-width:2.1;stroke-dasharray:none;stroke-opacity:1"/><path d="M19.408 16.225c-3.398-2.684-7.247-2.733-10.45.218-.46.291-1.337-1.767-.777-2.117 3.586-3.126 8.081-2.99 12.06-.254.552.326-.378 2.42-.832 2.153" style="display:inline;fill:#000;fill-opacity:1;stroke-width:1.0443"/><path d="M17.5 20.501a2.5 2.5 0 1 0-5 0 2.5 2.5 0 0 0 5 0M32.5 20.501a2.5 2.5 0 1 0-5 0 2.5 2.5 0 0 0 5 0" style="display:inline;fill:#000;fill-opacity:1;fill-rule:nonzero;stroke:none;stroke-width:0;stroke-dasharray:none"/><path d="M29.533 36.5h-9.066c-.623 0-.623-3 0-3h9.066c.623 0 .623 3 0 3" style="display:inline;fill:#000;fill-opacity:1;stroke:none;stroke-width:0;stroke-dasharray:none;stroke-opacity:1"/><path d="M25.753 12.324c4.284-.626 7.642 1.257 8.94 5.414.253.482 2.042-.862 1.732-1.445-1.543-4.5-5.503-6.63-10.317-6.25-.64.006-.883 2.285-.356 2.28" style="display:inline;fill:#000;fill-opacity:1;stroke-width:1.0443"/></svg>