<svg xmlns="http://www.w3.org/2000/svg" xmlns:xlink="http://www.w3.org/1999/xlink" width="45" height="57" data-name="Layer 1"><defs><linearGradient id="e"><stop offset="0" style="stop-color:#fff21c;stop-opacity:1"/><stop offset="1" style="stop-color:#fea40c;stop-opacity:1"/></linearGradient><linearGradient id="d"><stop offset="0" style="stop-color:#fff21c;stop-opacity:1"/><stop offset="1" style="stop-color:#fea40c;stop-opacity:1"/></linearGradient><linearGradient id="c"><stop offset="0" style="stop-color:#fff21c;stop-opacity:1"/><stop offset="1" style="stop-color:#fea40c;stop-opacity:1"/></linearGradient><linearGradient id="b"><stop offset="0" style="stop-color:#fff21c;stop-opacity:1"/><stop offset="1" style="stop-color:#fea40c;stop-opacity:1"/></linearGradient><linearGradient id="a"><stop offset="0" style="stop-color:#fff21c;stop-opacity:1"/><stop offset="1" style="stop-color:#fea40c;stop-opacity:1"/></linearGradient><linearGradient id="f" x1="6.605" x2="36.975" y1="7.344" y2="42.178" gradientUnits="userSpaceOnUse"><stop offset="0" stop-color="#ffff2e" style="stop-color:#fff21c;stop-opacity:1"/><stop offset="1" stop-color="#ff913d" style="stop-color:#fea40c;stop-opacity:1"/></linearGradient><linearGradient xlink:href="#e" id="g" x1="10.169" x2="34.538" y1="13.283" y2="42.647" gradientUnits="userSpaceOnUse"/></defs><path d="M43.95 22.348c0 13.507-9.597 27.602-21.44 27.602-11.842 0-21.46-14.063-21.46-27.602C1.05 8.81 10.668 1.05 22.51 1.05c11.843 0 21.44 7.803 21.44 21.298Z" style="display:inline;fill:url(#f);stroke:#000;stroke-width:2.1;stroke-dasharray:none;stroke-opacity:1"/><path d="M19.426 15.025c-3.977-1.713-7.708-.764-10.038 2.916-.369.4-1.75-1.36-1.299-1.844 2.655-3.948 7.032-4.98 11.584-3.366.617.171.261 2.435-.246 2.294" style="display:inline;fill:#000;fill-opacity:1;stroke-width:1.0443"/><path d="M17.5 20.501a2.5 2.5 0 1 0-5 0 2.5 2.5 0 0 0 5 0m15 0a2.5 2.5 0 1 0-5 0 2.5 2.5 0 0 0 5 0" style="display:inline;fill:#000;fill-opacity:1;fill-rule:nonzero;stroke:none;stroke-width:0;stroke-dasharray:none"/><path d="M28.347 36.5H15.653c-.87 0-.87-3 0-3h12.694c.87 0 .87 3 0 3" style="display:inline;fill:#000;fill-opacity:1;stroke:none;stroke-width:0;stroke-dasharray:none;stroke-opacity:1"/><path d="M25.574 15.025c3.977-1.713 7.708-.764 10.038 2.916.369.4 1.75-1.36 1.299-1.844-2.655-3.948-7.032-4.98-11.584-3.366-.617.171-.261 2.435.246 2.294" style="display:inline;fill:#000;fill-opacity:1;stroke-width:1.0443"/><g style="fill:url(#g)" transform="translate(-3 14)"><path d="M22.94 23.606c.016-1.439.02-7.214.115-7.498.335-1.008 1.251-1.615 2.275-1.608.894.006 1.744.487 2.135 1.303.235.488.221 6.4.222 7.88l.001 1.315-2.307.012c-1.269.007-2.34.03-2.382.05-.072.036-.074-.02-.059-1.454zM21.762 41.474a10.762 10.762 0 0 1-6.132-2.472 13.412 13.412 0 0 1-1.607-1.657 11.623 11.623 0 0 1-1.854-3.497c-.372-1.163-.508-1.966-.546-3.22l-.025-.838.25.207c.533.443 1.074.686 1.732.777 1.146.16 2.346-.373 3.057-1.358l.174-.24.228.306c.791 1.06 2.09 1.53 3.39 1.225a4.05 4.05 0 0 0 .683-.27c.333-.168.485-.276.763-.547l.348-.337.07.188c.227.612.887 1.324 1.532 1.656.219.112.444.216.5.231.098.027.092.035-.123.184-.33.23-.935.848-1.202 1.228-.599.855-.972 1.99-.972 2.961 0 .289.012.341.105.455a.441.441 0 0 0 .508.132c.226-.096.26-.175.316-.744.089-.883.31-1.522.755-2.185.27-.4.844-.964 1.241-1.218.588-.377 1.474-.657 2.077-.657.41 0 .617-.163.617-.484a.568.568 0 0 0-.067-.27c-.134-.196-.259-.215-1.461-.215-1.235 0-1.396-.022-1.876-.26-.347-.172-.843-.673-1.015-1.025-.255-.52-.268-.607-.287-1.923-.016-1.08-.01-1.224.053-1.36.137-.297-.142-.28 4.417-.267l4.112.011.276.114a2.4 2.4 0 0 1 1.303 1.235c.241.51.257.684.235 2.517-.021 1.704-.045 1.977-.259 2.958-.258 1.182-.863 2.64-1.514 3.644-1.389 2.143-3.373 3.701-5.705 4.48-1.316.44-2.798.633-4.097.535z" style="fill:url(#g);stroke:#000;stroke-width:3;paint-order:stroke fill markers"/><path d="M13.4 29.78c-.641-.16-1.247-.667-1.537-1.287a3.038 3.038 0 0 1-.208-.603c-.07-.402-.056-2.641.019-2.969a2.554 2.554 0 0 1 1.016-1.478c.671-.452 1.626-.51 2.336-.143.61.316 1.064.892 1.251 1.587.06.221.07.46.07 1.547 0 1.423-.013 1.536-.256 2.064-.171.373-.593.833-.96 1.046-.471.275-1.183.372-1.73.235zM19.096 30.788c-.873-.22-1.579-.965-1.764-1.866-.088-.426-.088-5.418 0-5.849.186-.907.91-1.67 1.78-1.876a2.538 2.538 0 0 1 1.262.064c.741.252 1.285.819 1.538 1.602l.096.295v2.822c0 2.62-.006 2.841-.076 3.073-.26.864-.909 1.514-1.727 1.73-.288.075-.82.077-1.11.005z" style="fill:url(#g);stroke:#000;stroke-width:3;paint-order:stroke fill markers"/></g></svg>