<svg xmlns="http://www.w3.org/2000/svg" width="45" height="57" data-name="Layer 1"><defs><linearGradient id="a" x1="6.605" x2="36.975" y1="7.344" y2="42.178" gradientUnits="userSpaceOnUse"><stop offset="0" stop-color="#ffff2e" style="stop-color:#fff21c;stop-opacity:1"/><stop offset="1" stop-color="#ff913d" style="stop-color:#fea40c;stop-opacity:1"/></linearGradient></defs><path d="M43.95 22.348c0 13.507-9.597 27.602-21.44 27.602-11.842 0-21.46-14.063-21.46-27.602C1.05 8.81 10.668 1.05 22.51 1.05c11.843 0 21.44 7.803 21.44 21.298Z" style="display:inline;fill:url(#a);stroke:#000;stroke-width:2.1;stroke-dasharray:none;stroke-opacity:1"/><path d="M19.426 15.025c-3.977-1.713-7.708-.764-10.038 2.916-.369.4-1.75-1.36-1.299-1.844 2.655-3.948 7.032-4.98 11.584-3.366.617.171.261 2.435-.246 2.294" style="display:inline;fill:#000;fill-opacity:1;stroke-width:1.0443"/><path d="M17.5 20.501a2.5 2.5 0 1 0-5 0 2.5 2.5 0 0 0 5 0M32.5 20.501a2.5 2.5 0 1 0-5 0 2.5 2.5 0 0 0 5 0" style="display:inline;fill:#000;fill-opacity:1;fill-rule:nonzero;stroke:none;stroke-width:0;stroke-dasharray:none"/><path d="M25.574 15.025c3.977-1.713 7.708-.764 10.038 2.916.369.4 1.75-1.36 1.299-1.844-2.655-3.948-7.032-4.98-11.584-3.366-.617.171-.261 2.435.246 2.294" style="display:inline;fill:#000;fill-opacity:1;stroke-width:1.0443"/><path d="M-18.758 37.9h18.47c.555 0 1 .447 1 1v3.493c0 .554-.445 1-1 1h-18.47c-.554 0-1-.446-1-1V38.9c0-.554.446-1 1-1z" style="fill:#fff;stroke:#000;stroke-width:2.1;paint-order:stroke fill markers;stroke-dasharray:none" transform="rotate(-44.92)"/><path d="M31.411 6.781h18.471c.554 0 1 .446 1 1v3.492c0 .554-.446 1-1 1h-18.47c-.555 0-1-.446-1-1V7.781c0-.554.445-1 1-1z" style="fill:#fff;stroke:#000;stroke-width:2.1;paint-order:stroke fill markers;stroke-dasharray:none" transform="rotate(44.92)"/></svg>