<svg xmlns="http://www.w3.org/2000/svg" xmlns:xlink="http://www.w3.org/1999/xlink" width="57" height="57" data-name="Layer 1"><defs><linearGradient id="b"><stop offset="0" style="stop-color:#fff21c;stop-opacity:1"/><stop offset="1" style="stop-color:#fea40c;stop-opacity:1"/></linearGradient><linearGradient id="a"><stop offset="0" style="stop-color:#ff0;stop-opacity:1"/><stop offset="1" style="stop-color:#ff913d;stop-opacity:1"/></linearGradient><linearGradient id="c" x1="6.605" x2="36.975" y1="7.344" y2="42.178" gradientUnits="userSpaceOnUse"><stop offset="0" stop-color="#ffff2e" style="stop-color:#fff21c;stop-opacity:1"/><stop offset="1" stop-color="#ff913d" style="stop-color:#fea40c;stop-opacity:1"/></linearGradient><linearGradient xlink:href="#b" id="d" x1="5.41" x2="27.126" y1="23.273" y2="52.834" gradientUnits="userSpaceOnUse"/></defs><path d="M55.95 22.348c0 13.507-9.597 27.602-21.44 27.602-11.842 0-21.46-14.063-21.46-27.602C13.05 8.81 22.668 1.05 34.51 1.05c11.843 0 21.44 7.803 21.44 21.298Z" style="display:inline;fill:url(#c);stroke:#000;stroke-width:2.1;stroke-dasharray:none;stroke-opacity:1"/><path d="M47 33c0 4.616-4.152 10-12.5 10C26.148 43 22 37.616 22 33h25" style="fill:#000;stroke:none;stroke-width:0;stroke-dasharray:none;stroke-opacity:1"/><path d="M44.16 35.222c0 2.564-3.21 5.556-9.66 5.556-6.453 0-9.66-2.992-9.66-5.556h19.32" style="fill:#fff;stroke:none;stroke-width:0;stroke-dasharray:none;stroke-opacity:1"/><path d="M30.336 11.996c-3.285.046-6.147 1.809-7.808 4.808-.223.424-1.77-.742-1.496-1.255 1.916-3.46 5.22-5.495 9.01-5.549.558 0 .753 1.996.295 1.996" style="display:inline;fill:#000;fill-opacity:1;stroke-width:1.0443"/><path d="M46.078 16.804c-1.648-3.021-4.525-4.727-7.849-4.653-.463.021-.245-2.04.317-2.06 3.835-.085 7.157 1.881 9.06 5.368.271.516-1.303 1.77-1.527 1.346" style="display:inline;fill:#000;fill-opacity:1;stroke-width:1.06955"/><path d="M30.056 20.391a2.5 2.5 0 1 0-5 0 2.5 2.5 0 0 0 5 0M44.056 20.391a2.5 2.5 0 1 0-5 0 2.5 2.5 0 0 0 5 0" style="display:inline;fill:#000;fill-opacity:1;fill-rule:nonzero;stroke:none;stroke-width:0;stroke-dasharray:none"/><path d="M10.41 49.623c-2.273-1.745-3.706-4.447-3.885-7.328-.032-.51-.034-11.458-.002-11.809a2.01 2.01 0 0 1 .844-1.464c.286-.208.787-.38 1.108-.383.713-.005 1.43.427 1.784 1.074.238.434.26.766.257 3.883-.003 3.23-.01 3.161.313 3.3.241.102.443.03.57-.203.094-.173.101-.536.1-5.238-.001-2.779.012-5.15.03-5.268.041-.29.279-.788.485-1.016.258-.287.683-.544 1.032-.624 1.096-.251 2.147.431 2.387 1.551.064.297.08 1.286.077 4.9-.003 4.232.003 4.54.1 4.689.088.137.126.166.276.203a.483.483 0 0 0 .531-.248c.055-.1.072-.924.071-3.525 0-1.868.01-3.54.025-3.718.036-.446.3-.982.631-1.285.449-.41.93-.574 1.545-.526.32.025.4.05.725.228.3.164.4.241.56.43.243.288.431.675.486 1.002.023.138.044 2.508.046 5.267l.005 5.017-.172.026c-.4.061-1.177.286-1.527.442-.701.313-1.45.884-1.973 1.505-.308.366-.86 1.337-.996 1.752-.274.836-.412 1.948-.274 2.2.177.321.58.364.797.086.089-.113.112-.22.147-.667.06-.764.166-1.136.522-1.832.34-.663.64-1.05 1.146-1.474.66-.552 1.624-.937 2.526-1.01.256-.02.505-.062.553-.094.195-.126.228-.369.225-1.677-.001-.703.003-1.38.01-1.504.02-.356.128-.669.352-1.02a1.924 1.924 0 0 1 1.82-.892c.325.027.413.054.728.225.293.158.396.237.564.43.25.287.438.68.496 1.03.047.286.062 5.29.018 6.184-.044.899-.242 1.89-.566 2.838-.241.704-1.062 2.206-1.499 2.743-1.355 1.667-2.889 2.72-4.788 3.29-1.993.597-4.014.512-5.995-.252-.554-.213-1.753-.884-2.215-1.238z" style="fill:url(#d);stroke:#000;stroke-width:3;paint-order:stroke fill markers"><animateTransform attributeName="transform" dur="0.5s" repeatCount="indefinite" type="rotate" values="-20 16 43;25 16 43;-20 16 43"/></path></svg>