<svg xmlns="http://www.w3.org/2000/svg" width="45" height="57" data-name="Layer 1"><defs><linearGradient id="a" x1="6.605" x2="36.975" y1="7.344" y2="42.178" gradientUnits="userSpaceOnUse"><stop offset="0" stop-color="#ffff2e" style="stop-color:#fff21c;stop-opacity:1"/><stop offset="1" stop-color="#ff913d" style="stop-color:#fea40c;stop-opacity:1"/></linearGradient></defs><path d="M43.95 22.348c0 13.507-9.597 27.602-21.44 27.602-11.842 0-21.46-14.063-21.46-27.602C1.05 8.81 10.668 1.05 22.51 1.05c11.843 0 21.44 7.803 21.44 21.298Z" style="display:inline;fill:url(#a);stroke:#000;stroke-width:2.1;stroke-dasharray:none;stroke-opacity:1"/><path d="M17 21.5a2.5 2.5 0 1 0-5 0 2.5 2.5 0 0 0 5 0M32 21.502a2.5 2.5 0 1 0-5 0 2.5 2.5 0 0 0 5 0" style="display:inline;fill:#000;fill-opacity:1;fill-rule:nonzero;stroke:none;stroke-width:0;stroke-dasharray:none"/><path fill="#65b1ef" d="M0 7.233C.111 6.09 5.48 3.186 10.499 3 8.435 4.61 7.98 4.606 6.619 5.89c-1.467.256-1.893.524-2.585 1.192.165.25 1.706.776 2.51 1.098.17.078.436.122.623.2.683.237 1.375.45 2.075.64 3.705.998 8.404 1.616 13.235 1.724a69.71 69.71 0 0 0 3.559-.006c6.206-.378 10.757-1.308 13.478-2.12.273-.08 1.183-.277 1.515-.652.32-.607-.64-1.258-2.088-1.594-1.034-1.117-1.066-.978-3.063-2.535 2.268-.085 9.143 1.467 9.122 4.45-.008 1.105-.86 2.127-2.368 3.019-1.613.954-3.977 1.753-6.865 2.336-3.733.753-8.336 1.141-13.316 1.025-7.47-.175-14.087-1.447-18.164-3.266C1.58 10.197.214 9.335.004 7.32" style="fill:#0ff;stroke:none;stroke-width:0;stroke-dasharray:none"/><path d="M14.557 33.862c5.003 1.955 10.867 1.833 15.997-.331.707-.315 2.025 1.865 1.163 2.24-5.92 2.497-12.688 2.639-18.462.384-.841-.34.61-2.573 1.299-2.293" style="display:inline;fill:#000;fill-opacity:1;stroke-width:1.5706"/></svg>