<svg xmlns="http://www.w3.org/2000/svg" xmlns:xlink="http://www.w3.org/1999/xlink" width="51" height="57" data-name="Layer 1"><defs><linearGradient id="b"><stop offset="0" style="stop-color:#fff21c;stop-opacity:1"/><stop offset="1" style="stop-color:#fea40c;stop-opacity:1"/></linearGradient><linearGradient id="c" x1="11.495" x2="40.887" y1="8.183" y2="44.553" gradientUnits="userSpaceOnUse"><stop offset="0" stop-color="#ffff2e" style="stop-color:#fff21c;stop-opacity:1"/><stop offset="1" stop-color="#ff913d" style="stop-color:#fea40c;stop-opacity:1"/></linearGradient><linearGradient xlink:href="#a" id="d" x1=".463" x2="26.01" y1="30.295" y2="53.433" gradientUnits="userSpaceOnUse"/><linearGradient id="a"><stop offset="0" style="stop-color:#ffff2e;stop-opacity:1"/><stop offset="1" style="stop-color:#ff913d;stop-opacity:1"/></linearGradient><linearGradient xlink:href="#b" id="e" x1=".452" x2="28.347" y1="28.917" y2="53.226" gradientUnits="userSpaceOnUse"/></defs><path d="M49.95 22.348c0 13.507-9.597 27.602-21.44 27.602-11.842 0-21.46-14.063-21.46-27.602C7.05 8.81 16.668 1.05 28.51 1.05c11.843 0 21.44 7.803 21.44 21.298Z" style="display:inline;fill:url(#c);stroke:#000;stroke-width:2.1;stroke-dasharray:none;stroke-opacity:1"/><path d="M33.533 36.5h-9.066c-.623 0-.623-3 0-3h9.066c.623 0 .623 3 0 3" style="display:inline;fill:#000;fill-opacity:1;stroke:none;stroke-width:0;stroke-dasharray:none;stroke-opacity:1"/><ellipse cx="37.5" cy="18.5" rx="6.75" ry="6.75" style="fill:#fff;stroke:#000;stroke-width:1.5"><animate fill="remove" attributeName="ry" attributeType="XML" begin="0.1s;z.end+0.7s" dur="0.2s" repeatCount="1" to="2"/></ellipse><ellipse cx="19.5" cy="18.5" rx="6.75" ry="6.75"  style="fill:#fff;stroke:#000;stroke-width:1.5"><animate fill="remove" attributeName="ry" attributeType="XML" begin="0.1s;z.end+0.7s" dur="0.2s" repeatCount="1" to="2"/></ellipse><path d="M36 18.5a2.5 2.5 0 1 0-5 0 2.5 2.5 0 0 0 5 0" style="display:inline;fill:#000;fill-opacity:1;fill-rule:nonzero;stroke:none;stroke-width:0;stroke-dasharray:none"><animate attributeName="d" begin="0s" dur="2.4s" repeatCount="indefinite" values="m 36,18.5 a 2.5,2.5 0 1 0 -5,0 2.5,2.5 0 0 0 5,0; m 36,18.5 a 2.5,2.5 0 1 0 -5,0 2.5,2.5 0 0 0 5,0; m 36,18.5 a 2.5,2.5 0 1 0 -5,0 2.5,2.5 0 0 0 5,0; m 44,18.5 a 2.5,2.5 0 1 0 -5,0 2.5,2.5 0 0 0 5,0; m 44,18.5 a 2.5,2.5 0 1 0 -5,0 2.5,2.5 0 0 0 5,0; m 44,18.5 a 2.5,2.5 0 1 0 -5,0 2.5,2.5 0 0 0 5,0; m 36,18.5 a 2.5,2.5 0 1 0 -5,0 2.5,2.5 0 0 0 5,0; m 36,18.5 a 2.5,2.5 0 1 0 -5,0 2.5,2.5 0 0 0 5,0; m 36,18.5 a 2.5,2.5 0 1 0 -5,0 2.5,2.5 0 0 0 5,0"/></path><path d="M18 18.5a2.5 2.5 0 1 0-5 0 2.5 2.5 0 0 0 5 0" style="display:inline;fill:#000;fill-opacity:1;fill-rule:nonzero;stroke:none;stroke-width:0;stroke-dasharray:none"><animate attributeName="d" begin="0s" dur="2.4s" repeatCount="indefinite" values="m 18,18.500707 a 2.5000001,2.5000001 0 1 0 -5,0 2.5000001,2.5000001 0 0 0 5,0; m 18,18.500707 a 2.5000001,2.5000001 0 1 0 -5,0 2.5000001,2.5000001 0 0 0 5,0; m 18,18.500707 a 2.5000001,2.5000001 0 1 0 -5,0 2.5000001,2.5000001 0 0 0 5,0; m 26,18.500707 a 2.5000001,2.5000001 0 1 0 -5,0 2.5000001,2.5000001 0 0 0 5,0; m 26,18.500707 a 2.5000001,2.5000001 0 1 0 -5,0 2.5000001,2.5000001 0 0 0 5,0; m 26,18.500707 a 2.5000001,2.5000001 0 1 0 -5,0 2.5000001,2.5000001 0 0 0 5,0;m 18,18.500707 a 2.5000001,2.5000001 0 1 0 -5,0 2.5000001,2.5000001 0 0 0 5,0; m 18,18.500707 a 2.5000001,2.5000001 0 1 0 -5,0 2.5000001,2.5000001 0 0 0 5,0; m 18,18.500707 a 2.5000001,2.5000001 0 1 0 -5,0 2.5000001,2.5000001 0 0 0 5,0"/></path><path d="M1.713 44.383c-.525-2.553-.212-4.249 1.184-6.417.79-1.227 2.121-2.725 3.95-4.441.956-.899 3.47-3.07 3.748-3.237.12-.072.371-.172.558-.222 1.484-.398 2.854.882 2.536 2.37-.122.567-.225.688-2.491 2.908-1.145 1.121-2.124 2.102-2.175 2.178-.185.275.008.703.33.734.078.007 2.936-.743 7.85-2.06 8.568-2.295 8.06-2.176 8.652-2.018.964.257 1.6 1.155 1.504 2.124-.062.633-.368 1.146-.921 1.54-.219.156-.25.165-4.765 1.397-4.198 1.147-4.553 1.25-4.64 1.345-.216.237-.087.664.228.753.124.035.241.023.534-.055.206-.055.486-.11.621-.12a2.191 2.191 0 0 1 1.763.71c.242.274.249.287.384.791.135.506.136.517.06.877a2.149 2.149 0 0 1-1.123 1.476c-.12.06-.624.217-1.12.35-.811.218-.912.253-1.016.36a.466.466 0 0 0-.046.585c.133.2.301.25.648.193 1.045-.17 1.918.266 2.338 1.169.435.933-.017 2.153-.974 2.631-.284.143-5.678 1.591-6.326 1.7a9.997 9.997 0 0 1-6.532-1.115 9.561 9.561 0 0 1-4.154-4.594 14.237 14.237 0 0 1-.605-1.912Z" style="fill:url(#e);stroke:#000;stroke-width:3;paint-order:stroke fill markers"/></svg>