<svg xmlns="http://www.w3.org/2000/svg" width="45" height="57" data-name="Layer 1"><defs><linearGradient id="a" x1="6.605" x2="36.975" y1="7.344" y2="42.178" gradientUnits="userSpaceOnUse"><stop offset="0" stop-color="#ffff2e" style="stop-color:#fff21c;stop-opacity:1"/><stop offset="1" stop-color="#ff913d" style="stop-color:#fea40c;stop-opacity:1"/></linearGradient></defs><path d="M43.95 22.348c0 13.507-9.597 27.602-21.44 27.602-11.842 0-21.46-14.063-21.46-27.602C1.05 8.81 10.668 1.05 22.51 1.05c11.843 0 21.44 7.803 21.44 21.298Z" style="display:inline;fill:url(#a);stroke:#000;stroke-width:2.1;stroke-dasharray:none;stroke-opacity:1"/><path d="M31.501 25.25a6.708 6.709 0 0 1-4.773-1.976A6.7 6.701 0 0 1 24.75 18.5a6.756 6.758 0 0 1 6.75-6.75 6.76 6.76 0 0 1 6.75 6.752 6.705 6.706 0 0 1-1.976 4.773A6.704 6.705 0 0 1 31.5 25.25" style="display:inline;fill:#fff;fill-opacity:1;fill-rule:nonzero;stroke:#000;stroke-width:1.50001;stroke-dasharray:none;stroke-opacity:1"/><path d="M13.501 25.25a6.708 6.709 0 0 1-4.773-1.976A6.7 6.701 0 0 1 6.75 18.5a6.756 6.758 0 0 1 6.75-6.75 6.76 6.76 0 0 1 6.75 6.752 6.705 6.706 0 0 1-1.976 4.773A6.704 6.705 0 0 1 13.5 25.25" style="display:inline;fill:#fff;fill-opacity:1;fill-rule:nonzero;stroke:#000;stroke-width:1.50002;stroke-dasharray:none;stroke-opacity:1"/><path d="M12.5 18.502a2.5 2.5 0 1 0-5 0 2.5 2.5 0 0 0 5 0" style="display:inline;fill:#000;fill-opacity:1;fill-rule:nonzero;stroke:none;stroke-width:0;stroke-dasharray:none"><animate attributeName="d" begin="0s" dur="3s" repeatCount="indefinite" values="m 12.499999,18.502236 a 2.5,2.5 0 1 0 -4.999998,0 2.5,2.5 0 0 0 4.999998,0; m 19.499999,18.502236 a 2.5,2.5 0 1 0 -4.999998,0 2.5,2.5 0 0 0 4.999998,0; m 12.499999,18.502236 a 2.5,2.5 0 1 0 -4.999998,0 2.5,2.5 0 0 0 4.999998,0; m 15.999999,18.502236 a 2.5,2.5 0 1 0 -4.999998,0 2.5,2.5 0 0 0 4.999998,0; m 15.999999,18.502236 a 2.5,2.5 0 1 0 -4.999998,0 2.5,2.5 0 0 0 4.999998,0; m 12.499999,18.502236 a 2.5,2.5 0 1 0 -4.999998,0 2.5,2.5 0 0 0 4.999998,0"/></path><path d="M30.5 18.502a2.5 2.5 0 1 0-5 0 2.5 2.5 0 0 0 5 0" style="display:inline;fill:#000;fill-opacity:1;fill-rule:nonzero;stroke:none;stroke-width:0;stroke-dasharray:none"><animate attributeName="d" begin="0s" dur="3s" repeatCount="indefinite" values="m 30.5,18.502236 a 2.5,2.5 0 1 0 -5,0 2.5,2.5 0 0 0 5,0; m 37.5,18.502236 a 2.5,2.5 0 1 0 -5,0 2.5,2.5 0 0 0 5,0; m 30.5,18.502236 a 2.5,2.5 0 1 0 -5,0 2.5,2.5 0 0 0 5,0; m 34.5,18.502236 a 2.5,2.5 0 1 0 -5,0 2.5,2.5 0 0 0 5,0; m 34.5,18.502236 a 2.5,2.5 0 1 0 -5,0 2.5,2.5 0 0 0 5,0; m 30.5,18.502236 a 2.5,2.5 0 1 0 -5,0 2.5,2.5 0 0 0 5,0"/></path><path d="M28.347 36.5H15.653c-.87 0-.87-3 0-3h12.694c.87 0 .87 3 0 3" style="display:inline;fill:#000;fill-opacity:1;stroke:none;stroke-width:0;stroke-dasharray:none;stroke-opacity:1"><animate attributeName="d" begin="0.8s;b.end+1.2s" dur="3s" repeatCount="indefinite" values="m 28.346665,36.5 h -12.69333 c -0.871113,0 -0.871113,-3 0,-3 h 12.69333 c 0.871114,0 0.871114,3 0,3; m 28.346665,36.5 h -12.69333 c -0.871113,0 -0.871113,-3 0,-3 h 12.69333 c 0.871114,0 0.871114,3 0,3; m 14.556695,33.862391 c 5.003386,1.954832 10.867061,1.832443 15.997116,-0.331472 0.707229,-0.314473 2.025633,1.86474 1.163234,2.239559 -5.919619,2.497086 -12.687914,2.639024 -18.461864,0.384167 -0.841288,-0.339971 0.609062,-2.57273 1.298347,-2.293104; m 28.346665,36.5 h -12.69333 c -0.871113,0 -0.871113,-3 0,-3 h 12.69333 c 0.871114,0 0.871114,3 0,3; m 28.346665,36.5 h -12.69333 c -0.871113,0 -0.871113,-3 0,-3 h 12.69333 c 0.871114,0 0.871114,3 0,3"/></path></svg>